<svg width="104" height="32" viewBox="0 0 104 32" fill="none" xmlns="http://www.w3.org/2000/svg">
<g id="Airbnb Logo" clip-path="url(#clip0_19_1007)">
<path id="Vector" d="M30.0262 22.6792C29.8646 22.2892 29.7132 21.8792 29.5516 21.5292L28.8043 19.8592L28.774 19.8292C26.5525 15.0292 24.1794 10.1492 21.665 5.34921L21.564 5.14921C21.3116 4.67921 21.0591 4.15921 20.7966 3.67921C20.4735 3.10921 20.1604 2.49921 19.6454 1.91921C19.1434 1.31234 18.5116 0.8234 17.7957 0.487667C17.0797 0.151934 16.2974 -0.0222168 15.5052 -0.0222168C14.713 -0.0222168 13.9307 0.151934 13.2148 0.487667C12.4988 0.8234 11.867 1.31234 11.365 1.91921C10.8904 2.49921 10.537 3.10921 10.2139 3.67921C9.9614 4.19921 9.70895 4.70921 9.4464 5.17921L9.34542 5.37921C6.8714 10.1792 4.45797 15.0592 2.2364 19.8592L2.17581 19.9192C1.95365 20.4392 1.69111 20.9792 1.43865 21.5592C1.27709 21.9092 1.11552 22.2892 0.953948 22.7092C0.517746 23.809 0.378453 25.0024 0.549797 26.1717C0.721141 27.341 1.19721 28.446 1.93108 29.3776C2.66495 30.3093 3.6313 31.0355 4.73488 31.4847C5.83846 31.9338 7.04119 32.0905 8.22454 31.9392C9.35902 31.7913 10.4514 31.4171 11.4357 30.8392C12.7485 30.1092 14.0107 29.0492 15.4244 27.5192C16.8382 29.0492 18.1307 30.1092 19.4132 30.8492C20.6464 31.5661 22.0431 31.9617 23.4726 31.9992C25.128 32.006 26.73 31.4195 27.9828 30.3479C29.2357 29.2764 30.0547 27.7921 30.2888 26.1692C30.5592 25.003 30.4677 23.7831 30.0262 22.6692V22.6792ZM15.5254 24.3392C13.7886 22.1392 12.6576 20.1192 12.2738 18.3892C12.1149 17.7481 12.0806 17.083 12.1729 16.4292C12.2436 15.9192 12.4354 15.4692 12.698 15.0892C13.3039 14.2192 14.3641 13.6792 15.5254 13.6792C16.0769 13.6625 16.624 13.7817 17.1174 14.0261C17.6109 14.2704 18.0355 14.6323 18.3529 15.0792C18.6154 15.4792 18.8073 15.9192 18.8679 16.4292C18.9689 17.0092 18.9285 17.6792 18.7669 18.3892C18.3832 20.0892 17.2522 22.1292 15.5254 24.3392ZM28.3903 25.8192C28.2756 26.6432 27.9448 27.423 27.431 28.0809C26.9172 28.7389 26.2383 29.252 25.4619 29.5692C24.6944 29.8892 23.8462 29.9792 23.0182 29.8892C22.2103 29.7892 21.4025 29.5292 20.5744 29.0492C19.1996 28.2077 17.9633 27.1622 16.9088 25.9492C19.0294 23.3492 20.3119 20.9792 20.7966 18.8692C21.0289 17.8692 21.0591 16.9692 20.9582 16.1392C20.8321 15.3525 20.5358 14.602 20.0897 13.9392C19.5804 13.2205 18.9005 12.6367 18.1099 12.2391C17.3193 11.8415 16.4422 11.6424 15.5557 11.6592C13.6876 11.6592 12.0214 12.5192 11.0116 13.9292C10.557 14.5904 10.2632 15.3468 10.1533 16.1392C10.022 16.9792 10.0523 17.9092 10.3148 18.8692C10.7995 20.9792 12.1123 23.3792 14.2026 25.9692C13.166 27.2054 11.9268 28.2601 10.537 29.0892C9.69885 29.5692 8.9011 29.8192 8.09326 29.9192C6.83695 30.0786 5.56789 29.7404 4.56194 28.9783C3.55598 28.2162 2.89444 27.0917 2.72111 25.8492C2.62012 25.0492 2.69081 24.2492 3.01395 23.3492C3.11493 23.0292 3.2664 22.7092 3.42797 22.3292C3.65012 21.8092 3.91267 21.2692 4.16512 20.7292L4.20552 20.6592C6.38669 15.8892 8.76983 11.0192 11.2438 6.24921L11.3448 6.04921C11.5973 5.56921 11.8497 5.05921 12.1123 4.57921C12.3748 4.06921 12.6576 3.57921 13.0211 3.17921C13.3358 2.80723 13.729 2.50808 14.173 2.30283C14.617 2.09757 15.101 1.9912 15.5911 1.9912C16.0811 1.9912 16.5651 2.09757 17.0091 2.30283C17.4532 2.50808 17.8463 2.80723 18.161 3.17921C18.5144 3.57921 18.8073 4.06921 19.0698 4.57921C19.3223 5.05921 19.5747 5.57921 19.8373 6.04921L19.9383 6.24921C22.4022 11.0192 24.7853 15.8892 27.0069 20.6592L27.0372 20.6892C27.2997 21.2092 27.5219 21.7892 27.7743 22.2892C27.9359 22.6792 28.0975 22.9892 28.1985 23.3192C28.3903 24.2192 28.4913 25.0192 28.3903 25.8192ZM42.4468 24.1192C41.6859 24.1302 40.9322 23.9715 40.2417 23.6547C39.5512 23.3379 38.9416 22.8712 38.4581 22.2892C37.3716 21.0492 36.795 19.4503 36.8424 17.8092C36.8258 16.1324 37.421 14.5061 38.5187 13.2292C39.0264 12.6398 39.6584 12.1678 40.3702 11.8465C41.0821 11.5251 41.8564 11.3622 42.6387 11.3692C43.3747 11.3493 44.1038 11.515 44.7574 11.8509C45.411 12.1868 45.9676 12.6817 46.3749 13.2892L46.4759 11.7192H49.4245V23.7992H46.4658L46.3648 22.0392C45.9449 22.6879 45.3645 23.2195 44.6788 23.5835C43.9931 23.9476 43.2247 24.132 42.4468 24.1192ZM43.2142 21.2392C43.7999 21.2392 44.3149 21.0792 44.7996 20.7892C45.2439 20.4692 45.6075 20.0492 45.8902 19.5392C46.1427 19.0292 46.2739 18.4192 46.2739 17.7392C46.3133 17.1486 46.1972 16.558 45.937 16.0251C45.6768 15.4923 45.2815 15.0354 44.7895 14.6992C44.3169 14.4076 43.7711 14.253 43.2142 14.253C42.6573 14.253 42.1116 14.4076 41.6389 14.6992C41.1946 15.0192 40.8311 15.4392 40.5484 15.9492C40.2813 16.5117 40.15 17.1279 40.1646 17.7492C40.1253 18.3398 40.2414 18.9304 40.5015 19.4633C40.7617 19.9962 41.1571 20.453 41.649 20.7892C42.1237 21.0792 42.6387 21.2392 43.2142 21.2392ZM54.4736 8.45921C54.4736 8.80921 54.413 9.12921 54.2514 9.38921C54.0898 9.63921 53.8677 9.86921 53.5748 10.0292C53.282 10.1892 52.9689 10.2492 52.6458 10.2492C52.3227 10.2492 51.9995 10.1892 51.7067 10.0292C51.4297 9.87652 51.1968 9.65621 51.0301 9.38921C50.8737 9.10434 50.797 8.78327 50.808 8.45921C50.808 8.09921 50.8787 7.77921 51.0301 7.52921C51.1917 7.22921 51.4239 7.04921 51.7067 6.88921C51.9995 6.72921 52.3126 6.65921 52.6458 6.65921C52.9672 6.65188 53.2851 6.72727 53.5683 6.87801C53.8515 7.02875 54.0903 7.24968 54.2615 7.51921C54.4085 7.81076 54.4813 8.13345 54.4736 8.45921ZM51.0402 23.7592V11.6992H54.2514V23.7792H51.0301L51.0402 23.7592ZM62.8347 14.8592V14.8992C62.6833 14.8292 62.4813 14.7992 62.3298 14.7692C62.1279 14.7292 61.9663 14.7292 61.7744 14.7292C60.8757 14.7292 60.1991 14.9892 59.7548 15.5292C59.2701 16.0792 59.048 16.8492 59.048 17.8392V23.7692H55.8267V11.6892H58.7854L58.8864 13.5192C59.2095 12.8792 59.5933 12.3992 60.1386 12.0392C60.681 11.6894 61.3195 11.5147 61.9663 11.5392C62.1986 11.5392 62.4207 11.5592 62.6126 11.5992C62.7136 11.6292 62.7741 11.6292 62.8347 11.6592V14.8592ZM64.1273 23.7592V6.73921H67.3385V13.2392C67.7929 12.6592 68.3079 12.2092 68.9541 11.8592C69.9773 11.3624 71.1396 11.2215 72.2535 11.4592C73.3674 11.6969 74.368 12.2993 75.0938 13.1692C76.1826 14.4118 76.7594 16.0147 76.7094 17.6592C76.7261 19.336 76.1308 20.9624 75.0332 22.2392C74.5254 22.8286 73.8934 23.3006 73.1816 23.6219C72.4697 23.9433 71.6954 24.1062 70.9132 24.0992C70.1771 24.1192 69.448 23.9534 68.7944 23.6175C68.1408 23.2817 67.5842 22.7867 67.1769 22.1792L67.0759 23.7492L64.1273 23.7792V23.7592ZM70.3376 21.2392C70.9132 21.2392 71.4282 21.0792 71.9129 20.7892C72.3572 20.4692 72.7207 20.0492 73.0035 19.5392C73.266 19.0292 73.3872 18.4192 73.3872 17.7392C73.3872 17.0692 73.266 16.4592 73.0035 15.9492C72.7383 15.4574 72.3657 15.0304 71.9129 14.6992C71.4402 14.4076 70.8945 14.253 70.3376 14.253C69.7807 14.253 69.2349 14.4076 68.7623 14.6992C68.3079 15.0192 67.9544 15.4392 67.6616 15.9492C67.3946 16.5117 67.2632 17.1279 67.2779 17.7492C67.2385 18.3398 67.3546 18.9304 67.6148 19.4633C67.875 19.9962 68.2704 20.453 68.7623 20.7892C69.2369 21.0792 69.7519 21.2392 70.3376 21.2392ZM77.9212 23.7692V11.6892H80.8799L80.9809 13.2592C81.3527 12.6574 81.8801 12.1649 82.5086 11.8326C83.1371 11.5003 83.8438 11.3403 84.5556 11.3692C85.3696 11.3553 86.1697 11.5793 86.8558 12.0133C87.5419 12.4473 88.0836 13.072 88.4131 13.8092C88.7665 14.5692 88.9584 15.5092 88.9584 16.5592V23.7992H85.7371V16.9792C85.7371 16.1392 85.5452 15.4792 85.1615 14.9892C84.7778 14.5092 84.2527 14.2492 83.5862 14.2492C83.1015 14.2492 82.6774 14.3492 82.3038 14.5692C81.9503 14.7992 81.6575 15.0892 81.4353 15.4992C81.2107 15.9137 81.0993 16.379 81.1122 16.8492V23.7692H77.9212ZM90.5639 23.7692V6.72921H93.7852V13.2292C94.2215 12.646 94.7891 12.1715 95.443 11.8434C96.0968 11.5153 96.8188 11.3427 97.5518 11.3392C98.3127 11.3282 99.0664 11.487 99.7569 11.8038C100.447 12.1206 101.057 12.5872 101.541 13.1692C102.622 14.4117 103.194 16.0098 103.146 17.6492C103.164 19.3262 102.568 20.9528 101.47 22.2292C100.962 22.8186 100.33 23.2906 99.6182 23.6119C98.9064 23.9333 98.1321 24.0962 97.3498 24.0892C96.6138 24.1092 95.8846 23.9434 95.231 23.6075C94.5774 23.2717 94.0208 22.7767 93.6136 22.1692L93.5227 23.7392L90.5639 23.7692ZM96.8045 21.2392C97.3902 21.2392 97.9052 21.0792 98.3798 20.7892C98.8342 20.4692 99.1877 20.0492 99.4805 19.5392C99.733 19.0292 99.8642 18.4192 99.8642 17.7392C99.9036 17.1486 99.7875 16.558 99.5273 16.0251C99.2671 15.4923 98.8717 15.0354 98.3798 14.6992C97.9072 14.4076 97.3614 14.253 96.8045 14.253C96.2476 14.253 95.7019 14.4076 95.2292 14.6992C94.7849 15.0192 94.4214 15.4392 94.1387 15.9492C93.8568 16.5066 93.7246 17.1265 93.7549 17.7492C93.7156 18.3398 93.8317 18.9304 94.0919 19.4633C94.352 19.9962 94.7474 20.453 95.2393 20.7892C95.714 21.0792 96.1987 21.2392 96.8045 21.2392Z" fill="#FF385C"/>
</g>
<defs>
<clipPath id="clip0_19_1007">
<rect width="103" height="32" fill="white" transform="translate(0.5)"/>
</clipPath>
</defs>
</svg>
