<svg width="122" height="24" viewBox="0 0 122 24" fill="none" xmlns="http://www.w3.org/2000/svg">
<g id="Microsoft Logo" clip-path="url(#clip0_19_1031)">
<path id="Vector" d="M43.0636 13.4887L42.3364 15.2983H42.2758C42.1546 14.8902 41.9324 14.2693 41.5689 13.5242L37.6705 4.91999H33.853V18.6335H36.3778V10.1712C36.3778 9.639 36.3778 9.03581 36.3576 8.29071C36.3374 7.91816 36.297 7.6343 36.2768 7.42142H36.3374C36.4586 7.95364 36.6 8.34393 36.701 8.5923L41.3871 18.598H43.1646L47.8102 8.5036C47.9112 8.27297 48.0122 7.81171 48.1132 7.42142H48.1738C48.1132 8.43263 48.0728 9.33741 48.0526 9.88737V18.5803H50.7391V4.88451H47.0629L43.0636 13.4887V13.4887ZM53.2841 8.75196H55.9099V18.5803H53.2841V8.75196ZM54.6172 4.60066C54.1728 4.60066 53.8093 4.74258 53.5063 4.99095C53.2033 5.23932 53.0417 5.55865 53.0417 5.94894C53.0417 6.3215 53.2033 6.64083 53.5063 6.8892C53.8093 7.13757 54.1728 7.26175 54.6172 7.26175C55.0616 7.26175 55.4453 7.11983 55.7281 6.8892C56.0311 6.64083 56.1927 6.3215 56.1927 5.94894C56.1927 5.57639 56.0311 5.25706 55.7281 4.99095C55.4655 4.74258 55.0818 4.60066 54.6172 4.60066V4.60066ZM65.2215 8.66326C64.7367 8.57456 64.2318 8.52134 63.747 8.52134C62.5553 8.52134 61.4645 8.75197 60.5556 9.21322C59.6467 9.67448 58.9195 10.3131 58.4549 11.1115C57.9702 11.9275 57.7278 12.8678 57.7278 13.95C57.7278 14.8902 57.9702 15.724 58.4347 16.4869C58.8993 17.232 59.5457 17.8352 60.4142 18.2432C61.2424 18.6512 62.2119 18.8641 63.3026 18.8641C64.5549 18.8641 65.6255 18.6335 66.4738 18.2077L66.494 18.19V16.0611L66.393 16.1321C66.0093 16.3804 65.5649 16.5933 65.1205 16.7175C64.6559 16.8594 64.2318 16.9304 63.8682 16.9304C62.8179 16.9304 61.9897 16.6643 61.404 16.0788C60.798 15.5111 60.495 14.7306 60.495 13.7548C60.495 12.7436 60.798 11.9453 61.4242 11.3598C62.0503 10.7744 62.8785 10.4728 63.8884 10.4728C64.7367 10.4728 65.6053 10.7212 66.393 11.2179L66.494 11.2889V9.03582L66.4738 9.01807C66.1304 8.89389 65.7467 8.75196 65.2215 8.66326V8.66326ZM73.8867 8.5923C73.2404 8.5923 72.6344 8.76971 72.1093 9.14226C71.6649 9.46159 71.3619 9.92285 71.0993 10.4728H71.0791V8.75196H68.4533V18.5803H71.0791V13.5597C71.0791 12.7081 71.2811 11.9985 71.7255 11.484C72.1698 10.9518 72.7354 10.6857 73.4222 10.6857C73.6645 10.6857 73.9069 10.7389 74.2099 10.7744C74.4927 10.8454 74.6947 10.9163 74.8361 11.005L74.9371 11.076V8.76971L74.8765 8.75196C74.6947 8.64552 74.3311 8.5923 73.8867 8.5923V8.5923ZM81.0371 8.53908C79.199 8.53908 77.7245 9.01807 76.6944 9.95833C75.644 10.8986 75.1391 12.1936 75.1391 13.8258C75.1391 15.3515 75.6642 16.5933 76.6742 17.4981C77.6841 18.3851 79.0576 18.8464 80.7745 18.8464C82.5722 18.8464 84.0063 18.3674 85.0364 17.4094C86.0867 16.4514 86.5917 15.1741 86.5917 13.5952C86.5917 12.034 86.1069 10.7921 85.1172 9.88737C84.1679 8.98259 82.7742 8.53908 81.0371 8.53908V8.53908ZM83.1377 16.0966C82.653 16.6465 81.8854 16.9127 80.9361 16.9127C79.9867 16.9127 79.2192 16.6465 78.6738 16.0611C78.1285 15.5111 77.8659 14.7128 77.8659 13.7016C77.8659 12.6549 78.1487 11.8566 78.6738 11.2889C79.2192 10.7212 79.9665 10.4373 80.9159 10.4373C81.845 10.4373 82.5722 10.7034 83.0973 11.2534C83.6225 11.8034 83.9053 12.6017 83.9053 13.6484C83.8649 14.7128 83.6427 15.5466 83.1377 16.0966V16.0966ZM92.4493 12.8323C91.6212 12.5307 91.096 12.3001 90.8536 12.1049C90.6516 11.9275 90.5506 11.6792 90.5506 11.3598C90.5506 11.0937 90.6718 10.8276 90.9748 10.6502C91.2778 10.4728 91.6212 10.3841 92.1261 10.3841C92.5705 10.3841 93.0351 10.4551 93.4794 10.5615C93.9238 10.668 94.3278 10.8276 94.651 11.0405L94.752 11.1115V8.94711L94.6914 8.92937C94.3884 8.82293 93.9844 8.71648 93.4996 8.62778C93.0149 8.55682 92.5705 8.52134 92.2069 8.52134C90.9546 8.52134 89.9245 8.78745 89.1165 9.37289C88.3086 9.92285 87.9248 10.668 87.9248 11.5372C87.9248 11.9985 88.0056 12.4065 88.1874 12.7436C88.3692 13.0807 88.6318 13.4 88.9953 13.6661C89.3589 13.9145 89.8841 14.1983 90.6112 14.4644C91.2172 14.6951 91.6818 14.8725 91.9645 15.0144C92.2473 15.1563 92.4291 15.316 92.5705 15.4402C92.6715 15.5821 92.7321 15.7595 92.7321 15.9901C92.7321 16.6465 92.1665 16.9659 91.0152 16.9659C90.5708 16.9659 90.1063 16.8949 89.5609 16.7352C89.0155 16.5756 88.5106 16.345 88.0864 16.0788L87.9854 16.0079V18.2609L88.046 18.2787C88.4298 18.4384 88.8943 18.5448 89.4599 18.669C90.0255 18.7577 90.5304 18.8286 90.9748 18.8286C92.3281 18.8286 93.4391 18.5625 94.2268 17.9771C95.0347 17.4094 95.4589 16.682 95.4589 15.7418C95.4589 15.0854 95.2569 14.4999 94.8126 14.0564C94.2268 13.6306 93.4996 13.1871 92.4493 12.8323V12.8323ZM102.387 8.53908C100.549 8.53908 99.0745 9.01807 98.0443 9.95833C97.0142 10.8986 96.4891 12.1936 96.4891 13.8258C96.4891 15.3515 97.0142 16.5933 98.0241 17.4981C99.0341 18.3851 100.408 18.8464 102.124 18.8464C103.922 18.8464 105.356 18.3674 106.386 17.4094C107.437 16.4514 107.942 15.1741 107.942 13.5952C107.942 12.034 107.457 10.7921 106.467 9.88737C105.518 8.98259 104.124 8.53908 102.387 8.53908V8.53908ZM104.468 16.0966C103.983 16.6465 103.215 16.9127 102.266 16.9127C101.296 16.9127 100.549 16.6465 100.004 16.0611C99.4583 15.5111 99.1957 14.7128 99.1957 13.7016C99.1957 12.6549 99.4785 11.8566 100.004 11.2889C100.549 10.7212 101.296 10.4373 102.246 10.4373C103.155 10.4373 103.902 10.7034 104.427 11.2534C104.952 11.8034 105.235 12.6017 105.235 13.6484C105.235 14.7128 104.972 15.5466 104.468 16.0966V16.0966ZM121.98 10.6502V8.75196H119.334V5.8425L119.253 5.86024L116.748 6.51665L116.688 6.53439V8.75196H112.729V7.51012C112.729 6.94242 112.89 6.4989 113.173 6.21505C113.456 5.9312 113.88 5.78928 114.405 5.78928C114.769 5.78928 115.153 5.86024 115.577 6.01991L115.678 6.07313V4.06844L115.617 4.0507C115.254 3.94425 114.769 3.87329 114.143 3.87329C113.355 3.87329 112.668 4.03296 112.042 4.29907C111.416 4.60066 110.951 5.00869 110.608 5.55865C110.265 6.09087 110.083 6.69405 110.083 7.38594V8.75196H108.245V10.6325H110.083V18.5803H112.729V10.6502H116.688V15.7063C116.688 17.7819 117.799 18.8286 120.021 18.8286C120.384 18.8286 120.768 18.7754 121.131 18.7222C121.515 18.6512 121.798 18.5625 121.96 18.4916L121.98 18.4738V16.5756L121.879 16.6465C121.717 16.7352 121.576 16.8062 121.333 16.8594C121.131 16.9127 120.95 16.9304 120.808 16.9304C120.283 16.9304 119.92 16.824 119.657 16.5578C119.415 16.3095 119.293 15.9014 119.293 15.2983V10.6502H121.98V10.6502Z" fill="#737373"/>
<path id="Vector_2" d="M0 0.307373H12.3818V11.1824H0V0.307373Z" fill="#F25022"/>
<path id="Vector_3" d="M13.6744 0.307373H26.0562V11.1824H13.6744V0.307373Z" fill="#7FBA00"/>
<path id="Vector_4" d="M0 12.3179H12.3818V23.1929H0V12.3179Z" fill="#00A4EF"/>
<path id="Vector_5" d="M13.6744 12.3179H26.0562V23.1929H13.6744V12.3179Z" fill="#FFB900"/>
</g>
<defs>
<clipPath id="clip0_19_1031">
<rect width="122" height="22.8854" fill="white" transform="translate(0 0.307373)"/>
</clipPath>
</defs>
</svg>
