<svg width="50" height="64" viewBox="0 0 50 64" fill="none" xmlns="http://www.w3.org/2000/svg">
<path id="Vector" d="M27.2727 18.2857V39.3386L36.3636 30.1957L39.5781 33.4286L25 48.09L10.4219 33.4286L13.6364 30.1957L22.7273 39.3386V18.2857H1.70455C1.25247 18.2857 0.818914 18.4663 0.49925 18.7878C0.179585 19.1093 0 19.5453 0 20V62.2857C0 62.7404 0.179585 63.1764 0.49925 63.4979C0.818914 63.8194 1.25247 64 1.70455 64H48.2955C48.7475 64 49.1811 63.8194 49.5008 63.4979C49.8204 63.1764 50 62.7404 50 62.2857V20C50 19.5453 49.8204 19.1093 49.5008 18.7878C49.1811 18.4663 48.7475 18.2857 48.2955 18.2857H27.2727ZM22.7273 0H27.2727V18.2857H22.7273V0Z" fill="white"/>
</svg>
