<svg width="64" height="64" viewBox="0 0 64 64" fill="none" xmlns="http://www.w3.org/2000/svg">
<path id="Vector" d="M6.33333 64H0V3.62429L0.781667 2.95571C1.35667 2.46143 4.79667 0 16 0C22.2017 0 29.1383 2.10143 35.2583 3.95429C40.1867 5.44714 44.8417 6.85714 48 6.85714C55.1383 6.85714 60.12 4.82143 60.1667 4.8L64 3.20857V40.27L62.5267 40.9014C62.285 41 56.5317 43.4286 48 43.4286C43.9767 43.4286 38.9367 42.4086 33.6017 41.3271C27.605 40.1129 21.405 38.8571 16 38.8571C9.855 38.8571 7.71 39.6543 6.33333 40.1586V64Z" fill="white"/>
</svg>
