<svg width="64" height="64" viewBox="0 0 64 64" fill="none" xmlns="http://www.w3.org/2000/svg">
<path id="Union" fill-rule="evenodd" clip-rule="evenodd" d="M62.5747 0.223148C62.8785 0.361858 63.1511 0.56073 63.3759 0.807746C64.2713 1.78776 64.1836 3.31393 63.2451 4.25086L61.3897 6.09704C61.2753 6.21193 61.1394 6.3031 60.9897 6.36532C60.84 6.42753 60.6795 6.45955 60.5174 6.45955C60.3553 6.45955 60.1948 6.42753 60.0451 6.36532C59.8954 6.3031 59.7594 6.21193 59.6451 6.09704L57.9004 4.35548C57.6698 4.12468 57.5402 3.81175 57.5402 3.48547C57.5402 3.15918 57.6698 2.84625 57.9004 2.61546L59.8035 0.721591C60.04 0.4857 60.3218 0.300198 60.632 0.176296C60.9421 0.0523943 61.2742 -0.00733451 61.6081 0.000718294C61.942 0.0087711 62.2708 0.0844383 62.5747 0.223148ZM26.2801 34.185L54.0527 6.46166C54.3122 6.20283 54.6638 6.05748 55.0304 6.05748C55.3969 6.05748 55.7485 6.20283 56.0081 6.46166L57.5389 8.00013C57.7954 8.25937 57.9392 8.60932 57.9392 8.97399C57.9392 9.33867 57.7954 9.68862 57.5389 9.94785L29.8155 37.7235C29.6478 37.8919 29.4396 38.0143 29.2109 38.0789L25.3878 39.3636C25.2839 39.3943 25.1737 39.3965 25.0688 39.3699C24.9638 39.3432 24.868 39.2887 24.7914 39.2122C24.7149 39.1356 24.6604 39.0398 24.6337 38.9348C24.6071 38.8299 24.6093 38.7197 24.6401 38.6159L25.9247 34.7897C25.9893 34.561 26.1117 34.3527 26.2801 34.185ZM33.3004 41.1978L52.0529 22.4083C52.2249 22.2361 52.4442 22.1187 52.6829 22.0711C52.9216 22.0235 53.1691 22.0477 53.3941 22.1408C53.619 22.2338 53.8114 22.3915 53.9467 22.5938C54.082 22.7962 54.1543 23.0341 54.1545 23.2776V55.3841C54.1545 57.669 53.2468 59.8604 51.631 61.4761C50.0153 63.0919 47.8239 63.9996 45.539 63.9995H8.61548C6.33051 63.9995 4.13913 63.0919 2.52342 61.4761C0.9077 59.8604 0 57.669 0 55.3841V18.4606C0 16.1756 0.9077 13.9842 2.52342 12.3685C4.13913 10.7528 6.33051 9.8451 8.61548 9.8451H40.722C40.9654 9.84521 41.2034 9.91751 41.4057 10.0529C41.6081 10.1882 41.7657 10.3805 41.8588 10.6055C41.9518 10.8304 41.976 11.0779 41.9284 11.3166C41.8808 11.5554 41.7635 11.7746 41.5912 11.9467L22.8018 30.7023C22.0764 31.4274 21.5383 32.3181 21.2341 33.2977L19.9002 37.2823C19.6332 38.228 19.6231 39.2277 19.871 40.1786C20.119 41.1294 20.616 41.997 21.3108 42.6918C22.0057 43.3866 22.8732 43.8836 23.824 44.1316C24.7749 44.3795 25.7746 44.3695 26.7203 44.1024L30.705 42.7685C31.6848 42.4634 32.5756 41.9243 33.3004 41.1978Z" fill="white"/>
</svg>
