<svg width="64" height="64" viewBox="0 0 64 64" fill="none" xmlns="http://www.w3.org/2000/svg">
<path id="Vector" d="M40.5333 0H23.4667C22.3351 0 21.2498 0.481631 20.4497 1.33894C19.6495 2.19625 19.2 3.35901 19.2 4.57143V63.4286C19.2 63.5801 19.2562 63.7255 19.3562 63.8326C19.4562 63.9398 19.5919 64 19.7333 64H44.2667C44.4081 64 44.5438 63.9398 44.6438 63.8326C44.7438 63.7255 44.8 63.5801 44.8 63.4286V4.57143C44.8 3.35901 44.3505 2.19625 43.5503 1.33894C42.7502 0.481631 41.6649 0 40.5333 0ZM59.7333 22.8571H50.1333C49.8504 22.8571 49.5791 22.9776 49.3791 23.1919C49.1791 23.4062 49.0667 23.6969 49.0667 24V62.8571C49.0667 63.1603 49.1791 63.4509 49.3791 63.6653C49.5791 63.8796 49.8504 64 50.1333 64H60.8C61.6487 64 62.4626 63.6388 63.0627 62.9958C63.6629 62.3528 64 61.4807 64 60.5714V27.4286C64 26.2162 63.5505 25.0534 62.7503 24.1961C61.9502 23.3388 60.8649 22.8571 59.7333 22.8571ZM4.26667 13.7143C3.13508 13.7143 2.04983 14.1959 1.24968 15.0532C0.449523 15.9105 0 17.0733 0 18.2857V60.5714C0 61.4807 0.337142 62.3528 0.937258 62.9958C1.53737 63.6388 2.35131 64 3.2 64H13.8667C14.1496 64 14.4209 63.8796 14.6209 63.6653C14.821 63.4509 14.9333 63.1603 14.9333 62.8571V14.8571C14.9333 14.554 14.821 14.2633 14.6209 14.049C14.4209 13.8347 14.1496 13.7143 13.8667 13.7143H4.26667Z" fill="white"/>
</svg>
