<svg width="64" height="64" viewBox="0 0 64 64" fill="none" xmlns="http://www.w3.org/2000/svg">
<path id="Vector" d="M18.4224 29.8775C18.6275 29.6419 18.8736 29.4523 19.1466 29.3195C19.4196 29.1867 19.714 29.1134 20.0132 29.1036C20.3124 29.0939 20.6104 29.148 20.8903 29.2628C21.1701 29.3776 21.4263 29.5509 21.6442 29.7728C32.1317 40.453 42.6548 46.951 55.0381 50.2632C56.7088 45.3358 56.8569 39.9125 55.4141 34.6217C53.4998 27.6016 49.0416 21.4854 42.5252 16.9353C36.7081 12.8732 30.8939 11.8153 25.2692 10.7929C18.1731 9.50253 11.4701 8.28299 5.07337 0.961134C4.3612 0.151187 3.39122 -0.173716 2.46397 0.089594C1.40425 0.397559 0.693502 1.30298 0.353083 2.79968C-0.444551 6.30278 0.0682135 16.1207 2.31156 26.4852C5.91374 43.1369 11.6624 51.5628 15.8514 55.7003C21.2639 61.042 28.3315 64 35.355 64C36.6789 64.0023 38.0011 63.8972 39.3104 63.6858C45.2514 62.7127 50.1967 59.4867 52.9841 54.7934C40.2377 51.2087 29.3485 44.3919 18.5149 33.3652C18.2966 33.143 18.1211 32.8764 17.9982 32.5807C17.8754 32.2851 17.8078 31.9661 17.7992 31.6421C17.7906 31.3181 17.8412 30.9955 17.9481 30.6927C18.0551 30.3899 18.2162 30.1128 18.4224 29.8775ZM62.0188 51.7722C59.6216 51.3734 57.2999 50.873 55.0395 50.2678C54.5747 51.6394 53.9965 52.9629 53.3117 54.2221C53.2078 54.4146 53.0981 54.6055 52.9856 54.7934C55.7349 55.5628 58.5189 56.1795 61.3266 56.6412C61.6253 56.6979 61.9315 56.6896 62.2273 56.6168C62.5231 56.5439 62.8024 56.408 63.0489 56.2169C63.2954 56.0259 63.5042 55.7835 63.663 55.5041C63.8217 55.2246 63.9273 54.9138 63.9734 54.5897C64.0196 54.2656 64.0055 53.9347 63.9319 53.6166C63.8582 53.2985 63.7266 52.9995 63.5447 52.7371C63.3628 52.4747 63.1342 52.2541 62.8724 52.0885C62.6107 51.9228 62.3209 51.8153 62.0202 51.7722H62.0188Z" fill="white"/>
</svg>
