<svg width="31" height="31" viewBox="0 0 31 31" fill="none" xmlns="http://www.w3.org/2000/svg">
<path id="Location" fill-rule="evenodd" clip-rule="evenodd" d="M15.5546 3.09318e-05C19.6757 0.0155328 23.6145 1.4107 26.4956 3.86001C29.395 6.32481 31.0179 9.65772 30.9997 13.1146V13.1922C30.8903 17.8892 27.7903 22.2143 23.9245 25.5937C21.7363 27.5004 19.311 29.1901 16.6669 30.6163C15.9557 31.1279 14.9163 31.1279 14.2052 30.6163C10.2846 28.446 6.81993 25.7177 4.01173 22.5398C1.54998 19.7805 0.145881 16.4631 0 13.0061C0.0364702 5.79774 7.00228 -0.015471 15.5546 3.09318e-05ZM15.5547 17.4548C16.8494 17.4548 18.0893 17.0363 19.0011 16.2767C19.9493 15.4861 20.48 14.4335 20.48 13.3313C20.48 11.037 18.2717 9.19229 15.5547 9.19229C12.8376 9.19229 10.6494 11.037 10.6494 13.3313C10.6494 15.5961 12.8012 17.4238 15.5 17.4548H15.5547Z" fill="#364660"/>
</svg>
