<svg width="47" height="37" viewBox="0 0 47 37" fill="none" xmlns="http://www.w3.org/2000/svg">
<g id="phone-icon">
<g id="Mobile">
<path id="Mobile_2" fill-rule="evenodd" clip-rule="evenodd" d="M6.01994 14.9385C6.01994 13.8757 6.0375 12.813 6.05514 11.7453C6.06409 11.204 6.07305 10.6615 6.07976 10.117C6.07976 4.26713 11.1045 0.00195312 18.0435 0.00195312H26.9565C33.8955 0.00195312 38.9202 4.26713 38.9202 10.117C38.9801 12.4603 39 14.8036 39 17.1638C39 19.524 38.9801 21.901 38.9202 24.2443C38.9202 30.0942 33.8955 34.3594 26.9565 34.3594H18.0435C11.1045 34.3594 6.07976 30.0942 6.07976 24.2275C6.03988 22.019 6 19.76 6 17.4673L6.01994 14.9385ZM25.5171 30.3063V30.5811C25.5171 31.7383 24.1896 32.6426 22.5 32.6426C20.8506 32.6426 19.4828 31.7383 19.4828 30.5811V30.3063C19.4828 29.1793 20.8506 28.2448 22.5 28.2448C24.1896 28.2448 25.5171 29.1793 25.5171 30.3063ZM10.7539 11.0707C10.7413 11.7647 10.7287 12.4555 10.7287 13.1463L10.7145 14.7899C10.7145 16.2802 10.743 17.7486 10.7714 19.1841C10.7714 22.9975 14.3606 25.7698 19.317 25.7698H25.6834C30.6398 25.7698 34.2289 22.9975 34.2289 19.1951C34.2717 17.6719 34.2859 16.1268 34.2859 14.5927C34.2859 13.0586 34.2717 11.5354 34.2289 10.0123C34.2289 6.20986 30.6398 3.4375 25.6834 3.4375H19.317C14.3606 3.4375 10.7714 6.20986 10.7714 10.0123C10.7667 10.3662 10.7602 10.7188 10.7539 11.0707Z" fill="#364660"/>
</g>
</g>
</svg>
