<svg width="45" height="45" viewBox="0 0 45 45" fill="none" xmlns="http://www.w3.org/2000/svg">
<g id="calendar">
<path id="Vector" d="M42.1875 11.2501C42.1875 9.75827 41.5949 8.32753 40.54 7.27264C39.4851 6.21775 38.0543 5.62512 36.5625 5.62512H35.1562V4.25842C35.1562 3.50168 34.5744 2.85217 33.8177 2.81437C33.6275 2.80521 33.4375 2.83475 33.2591 2.9012C33.0807 2.96764 32.9177 3.06962 32.7799 3.20094C32.6421 3.33225 32.5324 3.49019 32.4574 3.66516C32.3824 3.84013 32.3438 4.02851 32.3438 4.21887V5.62512H12.6562V4.25842C12.6562 3.50168 12.0744 2.85217 11.3177 2.81437C11.1275 2.80521 10.9375 2.83475 10.7591 2.9012C10.5807 2.96764 10.4177 3.06962 10.2799 3.20094C10.1421 3.33225 10.0324 3.49019 9.9574 3.66516C9.88243 3.84013 9.84377 4.02851 9.84375 4.21887V5.62512H8.4375C6.94566 5.62512 5.51492 6.21775 4.46002 7.27264C3.40513 8.32753 2.8125 9.75827 2.8125 11.2501V12.3048C2.8125 12.398 2.84954 12.4875 2.91547 12.5534C2.9814 12.6193 3.07082 12.6564 3.16406 12.6564H41.8359C41.9292 12.6564 42.0186 12.6193 42.0845 12.5534C42.1505 12.4875 42.1875 12.398 42.1875 12.3048V11.2501ZM2.8125 36.5626C2.8125 38.0545 3.40513 39.4852 4.46002 40.5401C5.51492 41.595 6.94566 42.1876 8.4375 42.1876H36.5625C38.0543 42.1876 39.4851 41.595 40.54 40.5401C41.5949 39.4852 42.1875 38.0545 42.1875 36.5626V15.7325C42.1875 15.6626 42.1597 15.5955 42.1103 15.5461C42.0608 15.4966 41.9938 15.4689 41.9238 15.4689H3.07617C3.00624 15.4689 2.93918 15.4966 2.88973 15.5461C2.84028 15.5955 2.8125 15.6626 2.8125 15.7325V36.5626ZM33.0469 18.2814C33.4641 18.2814 33.8719 18.4051 34.2188 18.6369C34.5657 18.8686 34.836 19.1981 34.9957 19.5835C35.1553 19.969 35.1971 20.3931 35.1157 20.8023C35.0343 21.2114 34.8334 21.5873 34.5384 21.8823C34.2434 22.1773 33.8676 22.3782 33.4584 22.4596C33.0492 22.541 32.6251 22.4992 32.2397 22.3395C31.8542 22.1799 31.5248 21.9095 31.293 21.5626C31.0612 21.2158 30.9375 20.8079 30.9375 20.3907C30.9375 19.8313 31.1597 19.2948 31.5553 18.8992C31.9509 18.5036 32.4874 18.2814 33.0469 18.2814ZM33.0469 25.3126C33.4641 25.3126 33.8719 25.4363 34.2188 25.6681C34.5657 25.8999 34.836 26.2293 34.9957 26.6148C35.1553 27.0002 35.1971 27.4243 35.1157 27.8335C35.0343 28.2427 34.8334 28.6185 34.5384 28.9135C34.2434 29.2085 33.8676 29.4094 33.4584 29.4908C33.0492 29.5722 32.6251 29.5305 32.2397 29.3708C31.8542 29.2111 31.5248 28.9408 31.293 28.5939C31.0612 28.247 30.9375 27.8392 30.9375 27.422C30.9375 26.8625 31.1597 26.326 31.5553 25.9304C31.9509 25.5349 32.4874 25.3126 33.0469 25.3126ZM26.0156 18.2814C26.4328 18.2814 26.8406 18.4051 27.1875 18.6369C27.5344 18.8686 27.8048 19.1981 27.9644 19.5835C28.1241 19.969 28.1659 20.3931 28.0845 20.8023C28.0031 21.2114 27.8022 21.5873 27.5072 21.8823C27.2122 22.1773 26.8363 22.3782 26.4271 22.4596C26.018 22.541 25.5938 22.4992 25.2084 22.3395C24.823 22.1799 24.4935 21.9095 24.2617 21.5626C24.03 21.2158 23.9062 20.8079 23.9062 20.3907C23.9062 19.8313 24.1285 19.2948 24.5241 18.8992C24.9197 18.5036 25.4562 18.2814 26.0156 18.2814ZM26.0156 25.3126C26.4328 25.3126 26.8406 25.4363 27.1875 25.6681C27.5344 25.8999 27.8048 26.2293 27.9644 26.6148C28.1241 27.0002 28.1659 27.4243 28.0845 27.8335C28.0031 28.2427 27.8022 28.6185 27.5072 28.9135C27.2122 29.2085 26.8363 29.4094 26.4271 29.4908C26.018 29.5722 25.5938 29.5305 25.2084 29.3708C24.823 29.2111 24.4935 28.9408 24.2617 28.5939C24.03 28.247 23.9062 27.8392 23.9062 27.422C23.9062 26.8625 24.1285 26.326 24.5241 25.9304C24.9197 25.5349 25.4562 25.3126 26.0156 25.3126ZM26.0156 32.3439C26.4328 32.3439 26.8406 32.4676 27.1875 32.6994C27.5344 32.9311 27.8048 33.2606 27.9644 33.646C28.1241 34.0315 28.1659 34.4556 28.0845 34.8648C28.0031 35.2739 27.8022 35.6498 27.5072 35.9448C27.2122 36.2398 26.8363 36.4407 26.4271 36.5221C26.018 36.6035 25.5938 36.5617 25.2084 36.402C24.823 36.2424 24.4935 35.972 24.2617 35.6251C24.03 35.2783 23.9062 34.8704 23.9062 34.4532C23.9062 33.8938 24.1285 33.3573 24.5241 32.9617C24.9197 32.5661 25.4562 32.3439 26.0156 32.3439ZM18.9844 25.3126C19.4016 25.3126 19.8094 25.4363 20.1563 25.6681C20.5032 25.8999 20.7735 26.2293 20.9332 26.6148C21.0928 27.0002 21.1346 27.4243 21.0532 27.8335C20.9718 28.2427 20.7709 28.6185 20.4759 28.9135C20.1809 29.2085 19.8051 29.4094 19.3959 29.4908C18.9867 29.5722 18.5626 29.5305 18.1772 29.3708C17.7917 29.2111 17.4623 28.9408 17.2305 28.5939C16.9987 28.247 16.875 27.8392 16.875 27.422C16.875 26.8625 17.0972 26.326 17.4928 25.9304C17.8884 25.5349 18.4249 25.3126 18.9844 25.3126ZM18.9844 32.3439C19.4016 32.3439 19.8094 32.4676 20.1563 32.6994C20.5032 32.9311 20.7735 33.2606 20.9332 33.646C21.0928 34.0315 21.1346 34.4556 21.0532 34.8648C20.9718 35.2739 20.7709 35.6498 20.4759 35.9448C20.1809 36.2398 19.8051 36.4407 19.3959 36.5221C18.9867 36.6035 18.5626 36.5617 18.1772 36.402C17.7917 36.2424 17.4623 35.972 17.2305 35.6251C16.9987 35.2783 16.875 34.8704 16.875 34.4532C16.875 33.8938 17.0972 33.3573 17.4928 32.9617C17.8884 32.5661 18.4249 32.3439 18.9844 32.3439ZM11.9531 25.3126C12.3703 25.3126 12.7781 25.4363 13.125 25.6681C13.4719 25.8999 13.7423 26.2293 13.9019 26.6148C14.0616 27.0002 14.1034 27.4243 14.022 27.8335C13.9406 28.2427 13.7397 28.6185 13.4447 28.9135C13.1497 29.2085 12.7738 29.4094 12.3646 29.4908C11.9555 29.5722 11.5313 29.5305 11.1459 29.3708C10.7605 29.2111 10.431 28.9408 10.1992 28.5939C9.96746 28.247 9.84375 27.8392 9.84375 27.422C9.84375 26.8625 10.066 26.326 10.4616 25.9304C10.8572 25.5349 11.3937 25.3126 11.9531 25.3126ZM11.9531 32.3439C12.3703 32.3439 12.7781 32.4676 13.125 32.6994C13.4719 32.9311 13.7423 33.2606 13.9019 33.646C14.0616 34.0315 14.1034 34.4556 14.022 34.8648C13.9406 35.2739 13.7397 35.6498 13.4447 35.9448C13.1497 36.2398 12.7738 36.4407 12.3646 36.5221C11.9555 36.6035 11.5313 36.5617 11.1459 36.402C10.7605 36.2424 10.431 35.972 10.1992 35.6251C9.96746 35.2783 9.84375 34.8704 9.84375 34.4532C9.84375 33.8938 10.066 33.3573 10.4616 32.9617C10.8572 32.5661 11.3937 32.3439 11.9531 32.3439Z" fill="white"/>
</g>
</svg>
