<svg width="50" height="50" viewBox="0 0 50 50" fill="none" xmlns="http://www.w3.org/2000/svg">
<g id="calendar">
<path id="Vector" d="M48.0358 13.6606C48.0358 12.003 47.3773 10.4132 46.2052 9.24114C45.0331 8.06904 43.4434 7.41056 41.7858 7.41056H40.2233V5.89201C40.2233 5.05119 39.5768 4.32951 38.736 4.28752C38.5247 4.27734 38.3136 4.31016 38.1154 4.38399C37.9172 4.45782 37.736 4.57112 37.5829 4.71703C37.4298 4.86294 37.3078 5.03842 37.2245 5.23283C37.1412 5.42725 37.0983 5.63655 37.0983 5.84806V7.41056H15.2233V5.89201C15.2233 5.05119 14.5768 4.32951 13.736 4.28752C13.5247 4.27734 13.3136 4.31016 13.1154 4.38399C12.9172 4.45782 12.736 4.57112 12.5829 4.71703C12.4298 4.86294 12.3078 5.03842 12.2245 5.23283C12.1412 5.42725 12.0983 5.63655 12.0983 5.84806V7.41056H10.5358C8.87816 7.41056 7.28845 8.06904 6.11635 9.24114C4.94425 10.4132 4.28577 12.003 4.28577 13.6606V14.8324C4.28577 14.936 4.32692 15.0354 4.40018 15.1087C4.47343 15.1819 4.57279 15.2231 4.67639 15.2231H47.6451C47.7487 15.2231 47.8481 15.1819 47.9214 15.1087C47.9946 15.0354 48.0358 14.936 48.0358 14.8324V13.6606ZM4.28577 41.7856C4.28577 43.4432 4.94425 45.0329 6.11635 46.205C7.28845 47.3771 8.87816 48.0356 10.5358 48.0356H41.7858C43.4434 48.0356 45.0331 47.3771 46.2052 46.205C47.3773 45.0329 48.0358 43.4432 48.0358 41.7856V18.641C48.0358 18.5633 48.0049 18.4888 47.95 18.4339C47.895 18.3789 47.8205 18.3481 47.7428 18.3481H4.57874C4.50104 18.3481 4.42652 18.3789 4.37158 18.4339C4.31663 18.4888 4.28577 18.5633 4.28577 18.641V41.7856ZM37.8795 21.4731C38.3431 21.4731 38.7962 21.6105 39.1816 21.8681C39.5671 22.1256 39.8675 22.4916 40.0449 22.9199C40.2223 23.3482 40.2687 23.8194 40.1782 24.2741C40.0878 24.7287 39.8646 25.1463 39.5368 25.4741C39.209 25.8019 38.7914 26.0251 38.3368 26.1155C37.8821 26.206 37.4109 26.1595 36.9826 25.9822C36.5543 25.8048 36.1883 25.5044 35.9308 25.1189C35.6732 24.7335 35.5358 24.2804 35.5358 23.8168C35.5358 23.1952 35.7827 22.5991 36.2222 22.1595C36.6618 21.72 37.2579 21.4731 37.8795 21.4731ZM37.8795 29.2856C38.3431 29.2856 38.7962 29.423 39.1816 29.6806C39.5671 29.9381 39.8675 30.3041 40.0449 30.7324C40.2223 31.1607 40.2687 31.6319 40.1782 32.0866C40.0878 32.5412 39.8646 32.9588 39.5368 33.2866C39.209 33.6144 38.7914 33.8376 38.3368 33.928C37.8821 34.0185 37.4109 33.972 36.9826 33.7946C36.5543 33.6173 36.1883 33.3169 35.9308 32.9314C35.6732 32.546 35.5358 32.0929 35.5358 31.6293C35.5358 31.0077 35.7827 30.4116 36.2222 29.972C36.6618 29.5325 37.2579 29.2856 37.8795 29.2856ZM30.067 21.4731C30.5306 21.4731 30.9837 21.6105 31.3691 21.8681C31.7546 22.1256 32.055 22.4916 32.2324 22.9199C32.4098 23.3482 32.4562 23.8194 32.3657 24.2741C32.2753 24.7287 32.0521 25.1463 31.7243 25.4741C31.3965 25.8019 30.9789 26.0251 30.5243 26.1155C30.0696 26.206 29.5984 26.1595 29.1701 25.9822C28.7418 25.8048 28.3758 25.5044 28.1183 25.1189C27.8607 24.7335 27.7233 24.2804 27.7233 23.8168C27.7233 23.1952 27.9702 22.5991 28.4097 22.1595C28.8493 21.72 29.4454 21.4731 30.067 21.4731ZM30.067 29.2856C30.5306 29.2856 30.9837 29.423 31.3691 29.6806C31.7546 29.9381 32.055 30.3041 32.2324 30.7324C32.4098 31.1607 32.4562 31.6319 32.3657 32.0866C32.2753 32.5412 32.0521 32.9588 31.7243 33.2866C31.3965 33.6144 30.9789 33.8376 30.5243 33.928C30.0696 34.0185 29.5984 33.972 29.1701 33.7946C28.7418 33.6173 28.3758 33.3169 28.1183 32.9314C27.8607 32.546 27.7233 32.0929 27.7233 31.6293C27.7233 31.0077 27.9702 30.4116 28.4097 29.972C28.8493 29.5325 29.4454 29.2856 30.067 29.2856ZM30.067 37.0981C30.5306 37.0981 30.9837 37.2355 31.3691 37.4931C31.7546 37.7506 32.055 38.1166 32.2324 38.5449C32.4098 38.9732 32.4562 39.4444 32.3657 39.899C32.2753 40.3537 32.0521 40.7713 31.7243 41.0991C31.3965 41.4269 30.9789 41.6501 30.5243 41.7405C30.0696 41.831 29.5984 41.7845 29.1701 41.6071C28.7418 41.4298 28.3758 41.1294 28.1183 40.7439C27.8607 40.3585 27.7233 39.9054 27.7233 39.4418C27.7233 38.8202 27.9702 38.2241 28.4097 37.7845C28.8493 37.345 29.4454 37.0981 30.067 37.0981ZM22.2545 29.2856C22.7181 29.2856 23.1712 29.423 23.5566 29.6806C23.9421 29.9381 24.2425 30.3041 24.4199 30.7324C24.5973 31.1607 24.6437 31.6319 24.5532 32.0866C24.4628 32.5412 24.2396 32.9588 23.9118 33.2866C23.584 33.6144 23.1664 33.8376 22.7118 33.928C22.2571 34.0185 21.7859 33.972 21.3576 33.7946C20.9293 33.6173 20.5633 33.3169 20.3058 32.9314C20.0482 32.546 19.9108 32.0929 19.9108 31.6293C19.9108 31.0077 20.1577 30.4116 20.5972 29.972C21.0368 29.5325 21.6329 29.2856 22.2545 29.2856ZM22.2545 37.0981C22.7181 37.0981 23.1712 37.2355 23.5566 37.4931C23.9421 37.7506 24.2425 38.1166 24.4199 38.5449C24.5973 38.9732 24.6437 39.4444 24.5532 39.899C24.4628 40.3537 24.2396 40.7713 23.9118 41.0991C23.584 41.4269 23.1664 41.6501 22.7118 41.7405C22.2571 41.831 21.7859 41.7845 21.3576 41.6071C20.9293 41.4298 20.5633 41.1294 20.3058 40.7439C20.0482 40.3585 19.9108 39.9054 19.9108 39.4418C19.9108 38.8202 20.1577 38.2241 20.5972 37.7845C21.0368 37.345 21.6329 37.0981 22.2545 37.0981ZM14.442 29.2856C14.9056 29.2856 15.3587 29.423 15.7441 29.6806C16.1296 29.9381 16.43 30.3041 16.6074 30.7324C16.7848 31.1607 16.8312 31.6319 16.7407 32.0866C16.6503 32.5412 16.4271 32.9588 16.0993 33.2866C15.7715 33.6144 15.3539 33.8376 14.8993 33.928C14.4446 34.0185 13.9734 33.972 13.5451 33.7946C13.1168 33.6173 12.7508 33.3169 12.4933 32.9314C12.2357 32.546 12.0983 32.0929 12.0983 31.6293C12.0983 31.0077 12.3452 30.4116 12.7847 29.972C13.2243 29.5325 13.8204 29.2856 14.442 29.2856ZM14.442 37.0981C14.9056 37.0981 15.3587 37.2355 15.7441 37.4931C16.1296 37.7506 16.43 38.1166 16.6074 38.5449C16.7848 38.9732 16.8312 39.4444 16.7407 39.899C16.6503 40.3537 16.4271 40.7713 16.0993 41.0991C15.7715 41.4269 15.3539 41.6501 14.8993 41.7405C14.4446 41.831 13.9734 41.7845 13.5451 41.6071C13.1168 41.4298 12.7508 41.1294 12.4933 40.7439C12.2357 40.3585 12.0983 39.9054 12.0983 39.4418C12.0983 38.8202 12.3452 38.2241 12.7847 37.7845C13.2243 37.345 13.8204 37.0981 14.442 37.0981Z" fill="white"/>
</g>
</svg>
