<svg width="65" height="64" viewBox="0 0 65 64" fill="none" xmlns="http://www.w3.org/2000/svg">
<path id="Union" fill-rule="evenodd" clip-rule="evenodd" d="M27.2918 12.8203C28.7128 13.5895 30.3833 14 32.0923 14C34.3832 13.998 36.5795 13.2599 38.1994 11.9476C39.8193 10.6352 40.7305 8.85591 40.7329 7C40.7329 5.61554 40.2262 4.26216 39.2767 3.11101C38.3273 1.95987 36.9778 1.06265 35.3989 0.532851C33.82 0.00303516 32.0827 -0.135591 30.4066 0.134505C28.7305 0.404601 27.1909 1.07129 25.9825 2.05026C24.774 3.02922 23.9511 4.2765 23.6177 5.63437C23.2843 6.99223 23.4554 8.3997 24.1094 9.67879C24.7634 10.9579 25.8709 12.0511 27.2918 12.8203ZM59.179 14.1148L59.2485 14.0998C62.1801 13.4761 64.1844 15.8923 64.1844 18.0961C64.1844 20.2998 61.7157 21.3373 59.2469 22.0873C59.165 22.1124 59.0816 22.1341 58.9969 22.1523L45.2213 26.0536C43.45 26.5923 42.6909 27.1523 42.5242 27.4023C42.5207 27.4088 42.5166 27.4151 42.5119 27.4211C42.336 27.6748 41.816 28.7573 42.4625 32.0336L43.3559 37.6586L48.3906 59.4998C48.4372 59.6678 48.4763 59.8371 48.5078 60.0073C48.8751 62.0323 47.0451 63.9998 43.5703 63.9998C40.5461 63.9998 39.2115 62.3086 38.6329 60.0073C38.6329 60.0073 34.1829 40.3111 32.0228 40.3111C30.1302 40.3111 27.0238 53.6627 25.894 58.5187C25.7342 59.2054 25.614 59.7222 25.5423 60.0073C24.9637 62.3086 23.629 63.9998 20.6048 63.9998C17.1393 63.9998 15.3093 62.0411 15.6673 60.0223L15.7028 59.8636C15.7151 59.8011 15.729 59.7398 15.7445 59.6798L20.7113 37.6561L21.6062 32.0311C21.7867 31.1161 22.2959 28.4948 21.6587 27.1711C21.4627 26.7586 21.0615 26.2823 19.5602 25.8161L4.86807 22.0986V22.0636C2.42245 21.3173 0 20.2773 0 18.0936C0 15.8886 2.00586 13.4761 4.9375 14.1011C5.35619 14.1895 5.76831 14.2972 6.17188 14.4236C10.2268 15.3573 22.9023 18.1073 32.0259 18.1073C41.8438 18.1073 55.7799 14.9248 58.6513 14.2423C58.8056 14.2036 58.9599 14.1661 59.1142 14.1311L59.179 14.1148Z" fill="#1D619D"/>
</svg>
