<svg width="51" height="53" viewBox="0 0 51 53" fill="none" xmlns="http://www.w3.org/2000/svg">
<g id="people">
<path id="Vector" d="M33.4687 26.5C31.4208 26.5 29.4405 25.5497 27.8906 23.8252C26.3835 22.143 25.4631 19.8998 25.3008 17.5107C25.1275 14.9621 25.8755 12.6186 27.4065 10.9105C28.9375 9.20254 31.0781 8.28125 33.4687 8.28125C35.8424 8.28125 37.989 9.2191 39.515 10.923C41.056 12.6434 41.806 14.9829 41.6327 17.5097C41.4664 19.9019 40.547 22.1441 39.0429 23.8241C37.4969 25.5497 35.5177 26.5 33.4687 26.5ZM46.6002 44.7188H20.3382C19.916 44.7211 19.4989 44.6227 19.119 44.4313C18.739 44.2398 18.4065 43.9603 18.1468 43.6142C17.8714 43.2391 17.6812 42.8041 17.5905 42.3418C17.4997 41.8795 17.5108 41.4018 17.6229 40.9446C18.4616 37.4447 20.5394 34.5421 23.6313 32.5515C26.3756 30.7855 29.8689 29.8125 33.4687 29.8125C37.1394 29.8125 40.541 30.7441 43.3012 32.5091C46.4 34.4893 48.4809 37.4085 49.3156 40.9508C49.4263 41.4084 49.4361 41.886 49.3444 42.3481C49.2526 42.8102 49.0616 43.2448 48.7857 43.6194C48.5263 43.9638 48.1945 44.242 47.8157 44.4325C47.4369 44.6231 47.0211 44.721 46.6002 44.7188ZM14.6426 26.9141C11.1373 26.9141 8.0554 23.527 7.76953 19.3647C7.62808 17.2322 8.26757 15.2603 9.56249 13.8142C10.8435 12.3825 12.6504 11.5938 14.6426 11.5938C16.6348 11.5938 18.4277 12.3867 19.7157 13.8266C21.0206 15.2841 21.6581 17.2519 21.5086 19.3667C21.2228 23.5281 18.1418 26.9141 14.6426 26.9141ZM21.1829 30.1696C19.4308 29.2794 17.1567 28.8343 14.6436 28.8343C11.7091 28.8343 8.85925 29.6293 6.61804 31.0723C4.07701 32.7109 2.36771 35.097 1.67742 37.9778C1.5764 38.3922 1.56684 38.8249 1.64947 39.2437C1.73209 39.6624 1.90475 40.0563 2.15454 40.3959C2.39156 40.7121 2.69521 40.9676 3.04213 41.1428C3.38905 41.3179 3.77001 41.4081 4.1557 41.4062H15.2123C15.399 41.4062 15.5796 41.3381 15.7229 41.2138C15.8662 41.0896 15.9629 40.917 15.9963 40.7262C16.0072 40.6609 16.0212 40.5957 16.0371 40.5315C16.8818 37.0058 18.861 34.0266 21.7856 31.8549C21.8931 31.7743 21.9796 31.6671 22.0373 31.543C22.0949 31.4189 22.1218 31.2818 22.1156 31.1442C22.1094 31.0065 22.0702 30.8727 22.0016 30.7547C21.933 30.6368 21.8372 30.5385 21.7228 30.4688C21.5664 30.3736 21.3871 30.2731 21.1829 30.1696Z" fill="white"/>
</g>
</svg>
