<svg width="50" height="50" viewBox="0 0 50 50" fill="none" xmlns="http://www.w3.org/2000/svg">
<path d="M33.333 25C31.1914 25 29.1206 23.696 27.4997 21.3295C25.9237 19.0213 24.9612 15.9432 24.7914 12.6648C24.6102 9.1676 25.3925 5.9517 26.9935 3.60795C28.5945 1.2642 30.8331 0 33.333 0C35.8153 0 38.0601 1.28693 39.6559 3.625C41.2674 5.98579 42.0517 9.19601 41.8705 12.6633C41.6965 15.946 40.7351 19.0227 39.1622 21.3281C37.5455 23.696 35.4757 25 33.333 25ZM47.0653 49.9999H19.6019C19.1603 50.0032 18.7241 49.8682 18.3268 49.6054C17.9295 49.3427 17.5817 48.9591 17.3102 48.4843C17.0222 47.9696 16.8233 47.3727 16.7284 46.7383C16.6335 46.1039 16.6451 45.4484 16.7623 44.821C17.6394 40.0184 19.8123 36.0355 23.0456 33.3039C25.9154 30.8806 29.5685 29.5454 33.333 29.5454C37.1716 29.5454 40.7288 30.8238 43.6153 33.2457C46.8559 35.963 49.0319 39.9687 49.9048 44.8295C50.0206 45.4574 50.0309 46.1128 49.9349 46.7469C49.839 47.381 49.6393 47.9773 49.3507 48.4914C49.0794 48.964 48.7324 49.3457 48.3363 49.6072C47.9401 49.8687 47.5054 50.003 47.0653 49.9999ZM13.6456 25.5682C9.98004 25.5682 6.75714 20.9204 6.45818 15.2088C6.31027 12.2827 6.97901 9.57669 8.33317 7.59232C9.67275 5.62783 11.5623 4.54545 13.6456 4.54545C15.729 4.54545 17.604 5.63352 18.9508 7.60937C20.3154 9.60936 20.9821 12.3096 20.8258 15.2116C20.5269 20.9219 17.305 25.5682 13.6456 25.5682ZM20.4852 30.0355C18.6529 28.8139 16.2748 28.2031 13.6467 28.2031C10.578 28.2031 7.59776 29.294 5.25402 31.2741C2.59674 33.5227 0.809252 36.7968 0.0873811 40.75C-0.0182589 41.3186 -0.0282506 41.9124 0.0581535 42.487C0.144558 43.0616 0.325121 43.6021 0.586337 44.0681C0.834198 44.502 1.15173 44.8526 1.51453 45.093C1.87732 45.3333 2.2757 45.457 2.67903 45.4545H14.2415C14.4366 45.4545 14.6256 45.361 14.7754 45.1905C14.9252 45.0199 15.0264 44.7831 15.0613 44.5213C15.0727 44.4318 15.0873 44.3423 15.104 44.2542C15.9873 39.4161 18.0571 35.3281 21.1154 32.348C21.2279 32.2374 21.3184 32.0903 21.3786 31.92C21.4389 31.7497 21.467 31.5616 21.4605 31.3727C21.454 31.1839 21.413 31.0002 21.3413 30.8384C21.2696 30.6765 21.1694 30.5417 21.0498 30.446C20.8862 30.3153 20.6987 30.1775 20.4852 30.0355Z" fill="white"/>
</svg>
