<svg width="64" height="65" viewBox="0 0 64 65" fill="none" xmlns="http://www.w3.org/2000/svg">
<path id="Union" fill-rule="evenodd" clip-rule="evenodd" d="M63.9893 22.0366V22.0536C63.9963 22.1307 63.9998 22.2082 64 22.2857V49.524C64 49.8592 63.9413 50.1909 63.8276 50.499C63.7139 50.8071 63.5474 51.0852 63.3384 51.3164C63.1293 51.5477 62.882 51.7272 62.6114 51.8442C62.3408 51.9612 62.0525 52.0132 61.7641 51.9971C60.6161 51.9306 59.7335 50.7869 59.7335 49.4544V27.0865C59.7337 27.032 59.7215 26.9785 59.6982 26.9313C59.6748 26.8841 59.6412 26.8448 59.6006 26.8175C59.5601 26.7902 59.514 26.7758 59.4671 26.7757C59.4202 26.7757 59.3741 26.79 59.3335 26.8172L33.0572 44.2451C32.7348 44.459 32.3699 44.5715 31.9986 44.5715C31.6272 44.5715 31.2623 44.459 30.9399 44.2451L1.07443 24.4354C0.748016 24.2188 0.476746 23.9059 0.288055 23.5284C0.0993652 23.1508 0 22.7222 0 22.2857C0 21.8493 0.0993652 21.4206 0.288055 21.0431C0.476746 20.6656 0.748016 20.3527 1.07443 20.1361L30.9399 0.326416C31.2623 0.112518 31.6272 0 31.9986 0C32.3699 0 32.7348 0.112518 33.0572 0.326416L62.9227 20.1361C63.2181 20.3313 63.469 20.6056 63.6545 20.9362C63.84 21.2668 63.9548 21.6441 63.9893 22.0366ZM30.8229 49.0496C31.144 49.2628 31.5075 49.3751 31.8774 49.3751C32.2473 49.3751 32.6108 49.2628 32.932 49.0496L51.5337 36.6981C51.6953 36.5897 51.8787 36.5326 52.0653 36.5327C52.252 36.5328 52.4353 36.59 52.5969 36.6985C52.7585 36.8071 52.8925 36.9632 52.9857 37.1511C53.0788 37.339 53.1277 37.5521 53.1274 37.7689V49.3751C53.1278 49.8157 53.0266 50.2484 52.8344 50.6283C52.6422 51.0081 52.3659 51.3213 52.0344 51.5353L32.9094 63.879C32.5937 64.0828 32.2386 64.1897 31.8774 64.1897C31.5163 64.1897 31.1612 64.0828 30.8455 63.879L11.7205 51.5353C11.3889 51.3213 11.1127 51.0081 10.9205 50.6283C10.7283 50.2484 10.6271 49.8157 10.6274 49.3751V37.7689C10.6272 37.5521 10.6761 37.339 10.7692 37.1511C10.8623 36.9632 10.9965 36.8071 11.158 36.6985C11.3196 36.59 11.5029 36.5328 11.6895 36.5327C11.8762 36.5326 12.0596 36.5897 12.2212 36.6981L30.8229 49.0496Z" fill="#1D619D"/>
</svg>
