<svg width="39" height="39" viewBox="0 0 39 39" fill="none" xmlns="http://www.w3.org/2000/svg">
<g id="thumbs-up-sharp">
<path id="Vector" d="M34.7344 14.625L22.8516 13.7109L24.6035 6.90113C25.0605 4.87496 24.5441 3.71182 22.8919 3.19918L20.2495 2.44889C20.187 2.43231 20.1208 2.43608 20.0605 2.45963C20.0003 2.48319 19.9491 2.52531 19.9144 2.5799L10.0882 17.9925C10.0337 18.0812 9.95743 18.1544 9.86662 18.2052C9.77582 18.256 9.67352 18.2827 9.56947 18.2827H1.21875V34.125H10.1773C10.5703 34.1249 10.9608 34.1882 11.3336 34.3123L17.1455 36.2494C17.7669 36.4567 18.4176 36.5624 19.0727 36.5625H32.6259C34.0732 36.5625 35.0254 35.5326 35.3095 34.1128L37.7812 23.2766V17.6718C37.7812 15.9915 36.4102 14.7773 34.7344 14.625Z" fill="white"/>
</g>
</svg>
