<svg width="64" height="64" viewBox="0 0 64 64" fill="none" xmlns="http://www.w3.org/2000/svg">
<path id="Vector" d="M32 0C14.3277 0 0 14.3277 0 32C0 49.6723 14.3277 64 32 64C49.6723 64 64 49.6723 64 32C64 14.3277 49.6723 0 32 0ZM46.0554 32.7154C45.8277 32.9449 45.5571 33.1274 45.2589 33.2523C44.9607 33.3772 44.6408 33.4422 44.3175 33.4435C43.9942 33.4448 43.6738 33.3824 43.3746 33.2598C43.0754 33.1372 42.8033 32.957 42.5738 32.7292L34.4615 24.68V45.2308C34.4615 45.8836 34.2022 46.5097 33.7406 46.9713C33.2789 47.433 32.6528 47.6923 32 47.6923C31.3472 47.6923 30.7211 47.433 30.2594 46.9713C29.7978 46.5097 29.5385 45.8836 29.5385 45.2308V24.68L21.4262 32.7292C21.1964 32.9569 20.9241 33.1371 20.6248 33.2596C20.3254 33.382 20.0049 33.4443 19.6814 33.4429C19.358 33.4415 19.038 33.3764 18.7397 33.2513C18.4415 33.1262 18.1708 32.9436 17.9431 32.7138C17.7154 32.4841 17.5352 32.2118 17.4127 31.9125C17.2903 31.6131 17.228 31.2926 17.2294 30.9691C17.2308 30.6457 17.2959 30.3257 17.421 30.0274C17.5461 29.7292 17.7288 29.4585 17.9585 29.2308L30.2662 17.0169C30.7272 16.5594 31.3504 16.3027 32 16.3027C32.6496 16.3027 33.2728 16.5594 33.7338 17.0169L46.0415 29.2308C46.2715 29.4585 46.4544 29.7294 46.5796 30.0278C46.7048 30.3263 46.7699 30.6465 46.7712 30.9702C46.7725 31.2939 46.7099 31.6146 46.5871 31.9141C46.4643 32.2135 46.2836 32.4858 46.0554 32.7154Z" fill="#A00303"/>
</svg>
