<svg width="64" height="64" viewBox="0 0 64 64" fill="none" xmlns="http://www.w3.org/2000/svg">
<path id="Vector" d="M0 60.5714C0 61.4807 0.361224 62.3528 1.00421 62.9958C1.64719 63.6388 2.51926 64 3.42857 64H60.5714C61.4807 64 62.3528 63.6388 62.9958 62.9958C63.6388 62.3528 64 61.4807 64 60.5714V20.5714H0V60.5714ZM45.7143 25.7143C45.7143 25.5627 45.7745 25.4174 45.8817 25.3102C45.9888 25.2031 46.1342 25.1429 46.2857 25.1429H52C52.1516 25.1429 52.2969 25.2031 52.4041 25.3102C52.5112 25.4174 52.5714 25.5627 52.5714 25.7143V31.4286C52.5714 31.5801 52.5112 31.7255 52.4041 31.8326C52.2969 31.9398 52.1516 32 52 32H46.2857C46.1342 32 45.9888 31.9398 45.8817 31.8326C45.7745 31.7255 45.7143 31.5801 45.7143 31.4286V25.7143ZM45.7143 37.1429C45.7143 36.9913 45.7745 36.846 45.8817 36.7388C45.9888 36.6316 46.1342 36.5714 46.2857 36.5714H52C52.1516 36.5714 52.2969 36.6316 52.4041 36.7388C52.5112 36.846 52.5714 36.9913 52.5714 37.1429V42.8571C52.5714 43.0087 52.5112 43.154 52.4041 43.2612C52.2969 43.3684 52.1516 43.4286 52 43.4286H46.2857C46.1342 43.4286 45.9888 43.3684 45.8817 43.2612C45.7745 43.154 45.7143 43.0087 45.7143 42.8571V37.1429ZM34.2857 25.7143C34.2857 25.5627 34.3459 25.4174 34.4531 25.3102C34.5602 25.2031 34.7056 25.1429 34.8571 25.1429H40.5714C40.723 25.1429 40.8683 25.2031 40.9755 25.3102C41.0827 25.4174 41.1429 25.5627 41.1429 25.7143V31.4286C41.1429 31.5801 41.0827 31.7255 40.9755 31.8326C40.8683 31.9398 40.723 32 40.5714 32H34.8571C34.7056 32 34.5602 31.9398 34.4531 31.8326C34.3459 31.7255 34.2857 31.5801 34.2857 31.4286V25.7143ZM34.2857 37.1429C34.2857 36.9913 34.3459 36.846 34.4531 36.7388C34.5602 36.6316 34.7056 36.5714 34.8571 36.5714H40.5714C40.723 36.5714 40.8683 36.6316 40.9755 36.7388C41.0827 36.846 41.1429 36.9913 41.1429 37.1429V42.8571C41.1429 43.0087 41.0827 43.154 40.9755 43.2612C40.8683 43.3684 40.723 43.4286 40.5714 43.4286H34.8571C34.7056 43.4286 34.5602 43.3684 34.4531 43.2612C34.3459 43.154 34.2857 43.0087 34.2857 42.8571V37.1429ZM34.2857 48.5714C34.2857 48.4199 34.3459 48.2745 34.4531 48.1674C34.5602 48.0602 34.7056 48 34.8571 48H40.5714C40.723 48 40.8683 48.0602 40.9755 48.1674C41.0827 48.2745 41.1429 48.4199 41.1429 48.5714V54.2857C41.1429 54.4373 41.0827 54.5826 40.9755 54.6898C40.8683 54.7969 40.723 54.8571 40.5714 54.8571H34.8571C34.7056 54.8571 34.5602 54.7969 34.4531 54.6898C34.3459 54.5826 34.2857 54.4373 34.2857 54.2857V48.5714ZM22.8571 37.1429C22.8571 36.9913 22.9173 36.846 23.0245 36.7388C23.1317 36.6316 23.277 36.5714 23.4286 36.5714H29.1429C29.2944 36.5714 29.4398 36.6316 29.5469 36.7388C29.6541 36.846 29.7143 36.9913 29.7143 37.1429V42.8571C29.7143 43.0087 29.6541 43.154 29.5469 43.2612C29.4398 43.3684 29.2944 43.4286 29.1429 43.4286H23.4286C23.277 43.4286 23.1317 43.3684 23.0245 43.2612C22.9173 43.154 22.8571 43.0087 22.8571 42.8571V37.1429ZM22.8571 48.5714C22.8571 48.4199 22.9173 48.2745 23.0245 48.1674C23.1317 48.0602 23.277 48 23.4286 48H29.1429C29.2944 48 29.4398 48.0602 29.5469 48.1674C29.6541 48.2745 29.7143 48.4199 29.7143 48.5714V54.2857C29.7143 54.4373 29.6541 54.5826 29.5469 54.6898C29.4398 54.7969 29.2944 54.8571 29.1429 54.8571H23.4286C23.277 54.8571 23.1317 54.7969 23.0245 54.6898C22.9173 54.5826 22.8571 54.4373 22.8571 54.2857V48.5714ZM11.4286 37.1429C11.4286 36.9913 11.4888 36.846 11.5959 36.7388C11.7031 36.6316 11.8484 36.5714 12 36.5714H17.7143C17.8658 36.5714 18.0112 36.6316 18.1183 36.7388C18.2255 36.846 18.2857 36.9913 18.2857 37.1429V42.8571C18.2857 43.0087 18.2255 43.154 18.1183 43.2612C18.0112 43.3684 17.8658 43.4286 17.7143 43.4286H12C11.8484 43.4286 11.7031 43.3684 11.5959 43.2612C11.4888 43.154 11.4286 43.0087 11.4286 42.8571V37.1429ZM11.4286 48.5714C11.4286 48.4199 11.4888 48.2745 11.5959 48.1674C11.7031 48.0602 11.8484 48 12 48H17.7143C17.8658 48 18.0112 48.0602 18.1183 48.1674C18.2255 48.2745 18.2857 48.4199 18.2857 48.5714V54.2857C18.2857 54.4373 18.2255 54.5826 18.1183 54.6898C18.0112 54.7969 17.8658 54.8571 17.7143 54.8571H12C11.8484 54.8571 11.7031 54.7969 11.5959 54.6898C11.4888 54.5826 11.4286 54.4373 11.4286 54.2857V48.5714ZM60.5714 4.57143H52.5829V0H45.7257V4.57143H18.2743V0H11.4171V4.57143H3.42857C2.98004 4.56766 2.53519 4.65268 2.11966 4.82159C1.70413 4.9905 1.32613 5.23996 1.00744 5.5556C0.688743 5.87124 0.435654 6.24682 0.262751 6.6607C0.0898483 7.07459 0.000549556 7.51859 0 7.96714V16H64V7.96714C63.9995 7.51859 63.9102 7.07459 63.7373 6.6607C63.5644 6.24682 63.3113 5.87124 62.9926 5.5556C62.6739 5.23996 62.2959 4.9905 61.8803 4.82159C61.4648 4.65268 61.02 4.56766 60.5714 4.57143Z" fill="#1D619D"/>
</svg>
