<svg width="32" height="32" viewBox="0 0 32 32" fill="none" xmlns="http://www.w3.org/2000/svg">
<path d="M16 -0.00292969C24.8223 -0.00292969 32 7.17476 32 15.9971C32 24.8194 24.8223 31.9971 16 31.9971C7.17769 31.9971 0 24.8194 0 15.9971C0 7.17476 7.17769 -0.00292969 16 -0.00292969ZM10.2069 20.0501C10.0878 20.1633 9.99258 20.2991 9.92681 20.4497C9.86104 20.6002 9.82608 20.7624 9.82397 20.9267C9.82187 21.0909 9.85267 21.254 9.91457 21.4061C9.97646 21.5583 10.0682 21.6966 10.1844 21.8127C10.3005 21.9289 10.4388 22.0206 10.5909 22.0825C10.7431 22.1444 10.9061 22.1752 11.0704 22.1731C11.2347 22.171 11.3968 22.136 11.5474 22.0703C11.6979 22.0045 11.8338 21.9092 11.9469 21.7901L16 17.7378L20.0531 21.7901C20.2858 22.0112 20.5956 22.1326 20.9166 22.1285C21.2375 22.1244 21.5441 21.9951 21.7711 21.7682C21.998 21.5412 22.1274 21.2346 22.1315 20.9136C22.1356 20.5927 22.0141 20.2828 21.7931 20.0501L17.7408 15.9971L21.7931 11.944C22.0141 11.7113 22.1356 11.4015 22.1315 11.0805C22.1274 10.7596 21.998 10.4529 21.7711 10.226C21.5441 9.99903 21.2375 9.86972 20.9166 9.86561C20.5956 9.8615 20.2858 9.98292 20.0531 10.204L16 14.2563L11.9469 10.204C11.7142 9.98292 11.4044 9.8615 11.0834 9.86561C10.7625 9.86972 10.4559 9.99903 10.2289 10.226C10.002 10.4529 9.87264 10.7596 9.86853 11.0805C9.86443 11.4015 9.98585 11.7113 10.2069 11.944L14.2592 15.9971L10.2069 20.0501Z" fill="white"/>
</svg>
