<svg width="64" height="64" viewBox="0 0 64 64" fill="none" xmlns="http://www.w3.org/2000/svg">
<path id="Union" fill-rule="evenodd" clip-rule="evenodd" d="M32 56.5708C23.9462 56.5708 14.8631 54.9122 7.70308 52.1423C5.23078 51.1753 3.09254 49.6462 1.31659 48.3762L1.31643 48.3761C1.20596 48.2971 1.09689 48.2191 0.989231 48.1423C0.898034 48.0775 0.789143 48.0378 0.674869 48.0274C0.560595 48.0171 0.445495 48.0367 0.342581 48.084C0.239668 48.1312 0.153044 48.2043 0.0925045 48.2949C0.0319646 48.3855 -7.77033e-05 48.49 1.41502e-07 48.5966V50.3937C1.41502e-07 54.4037 3.61385 57.9965 10.1754 60.5107C16.0446 62.7607 23.7954 63.9993 32 63.9993C40.2046 63.9993 47.9538 62.7607 53.8246 60.5107C60.3862 57.9993 64 54.4037 64 50.3937V48.5966C64.0001 48.49 63.968 48.3855 63.9075 48.2949C63.847 48.2043 63.7603 48.1312 63.6574 48.084C63.5545 48.0367 63.4394 48.0171 63.3251 48.0274C63.2109 48.0378 63.102 48.0775 63.0108 48.1423C62.8978 48.2228 62.7832 48.3047 62.6671 48.3877C60.8943 49.6543 58.7615 51.1783 56.2954 52.1423C49.1354 54.9122 40.0538 56.5708 32 56.5708ZM64 13.5013C63.8754 9.55132 60.28 6.01565 53.8462 3.52282C47.96 1.25141 40.2062 0 32 0C23.7938 0 16.04 1.25141 10.1677 3.52282C3.74 6.00993 0.144616 9.53846 0.0138466 13.4784L1.41502e-07 15.9998C1.41502e-07 16.9155 0.800001 18.3541 2.25077 19.5326C3.96308 20.9226 6.50462 22.294 9.60154 23.494C16.1908 26.0511 24.5646 27.5711 32 27.5711C39.4354 27.5711 47.8092 26.0454 54.3985 23.4883C57.4954 22.2883 60.0369 20.9169 61.7492 19.5269C63.2 18.3555 64 16.9169 64 15.9998V13.5013ZM56.2954 27.9047C49.1369 30.7371 40.0539 32.4237 32 32.4237C23.9462 32.4237 14.8631 30.7371 7.70311 27.9047C5.22002 26.9192 3.07391 25.3485 1.29338 24.0454L0.989266 23.823C0.897654 23.7566 0.788191 23.7159 0.673364 23.7056C0.558536 23.6953 0.442966 23.7158 0.339834 23.7648C0.236702 23.8137 0.150161 23.8891 0.0900805 23.9824C0.03 24.0757 -0.00120141 24.1831 3.5542e-05 24.2924V28.7793C3.5542e-05 29.7137 0.800035 30.8901 2.2508 32.0928C3.96311 33.5126 6.50465 34.9106 9.60157 36.1365C16.1908 38.7415 24.5646 40.2955 32 40.2955C39.4354 40.2955 47.8092 38.7386 54.3985 36.1307C57.4954 34.9047 60.0369 33.5068 61.7492 32.0869C63.2 30.8887 64 29.7137 64 28.7793V24.2924C64.0001 24.1836 63.968 24.077 63.9075 23.9845C63.847 23.8921 63.7603 23.8176 63.6574 23.7693C63.5545 23.7211 63.4394 23.7011 63.3251 23.7116C63.2109 23.7222 63.102 23.7627 63.0108 23.8288C62.8984 23.9105 62.7845 23.9936 62.6691 24.0777C60.896 25.3705 58.7625 26.9261 56.2954 27.9047ZM32 44.3526C40.0538 44.3526 49.1354 42.6481 56.2954 39.7935C58.762 38.8037 60.8952 37.2346 62.6681 35.9304C62.7839 35.8453 62.8981 35.7613 63.0108 35.6786C63.102 35.612 63.2109 35.571 63.3251 35.5604C63.4394 35.5498 63.5545 35.5699 63.6574 35.6186C63.7603 35.6672 63.847 35.7425 63.9075 35.8357C63.968 35.929 64.0001 36.0365 64 36.1463V40.5289C64 41.4657 63.2 42.6525 61.7492 43.8658C60.0369 45.2982 57.4954 46.7086 54.3985 47.9454C47.8092 50.5764 39.4369 52.1471 32 52.1471C24.5631 52.1471 16.1908 50.5764 9.60155 47.9484C6.50462 46.7115 3.96155 45.3012 2.24924 43.8687C0.80001 42.6569 1.01165e-05 41.4716 1.01165e-05 40.5289V36.1463C-0.000644972 36.0363 0.0309782 35.9283 0.0912894 35.8346C0.1516 35.741 0.238183 35.6653 0.341205 35.6163C0.444227 35.5673 0.559561 35.5469 0.67411 35.5574C0.78866 35.5679 0.897836 35.6089 0.989241 35.6757C1.09589 35.7541 1.20393 35.8337 1.31334 35.9143C3.08994 37.2236 5.22928 38.8002 7.70309 39.7935C14.8631 42.6481 23.9462 44.3526 32 44.3526Z" fill="white"/>
</svg>
