<svg width="95" height="33" viewBox="0 0 95 33" fill="none" xmlns="http://www.w3.org/2000/svg">
<g id="Google Logo" clip-path="url(#clip0_19_1012)">
<path id="Vector" d="M40.4273 16.9145C40.4273 21.4025 36.9382 24.7097 32.6562 24.7097C28.3742 24.7097 24.885 21.4025 24.885 16.9145C24.885 12.3949 28.3742 9.11938 32.6562 9.11938C36.9382 9.11938 40.4273 12.3949 40.4273 16.9145ZM37.0255 16.9145C37.0255 14.11 35.0032 12.1911 32.6562 12.1911C30.3091 12.1911 28.2869 14.11 28.2869 16.9145C28.2869 19.691 30.3091 21.638 32.6562 21.638C35.0032 21.638 37.0255 19.6875 37.0255 16.9145Z" fill="#EA4335"/>
<path id="Vector_2" d="M57.192 16.9145C57.192 21.4025 53.7029 24.7097 49.4209 24.7097C45.1389 24.7097 41.6497 21.4025 41.6497 16.9145C41.6497 12.3984 45.1389 9.11938 49.4209 9.11938C53.7029 9.11938 57.192 12.3949 57.192 16.9145ZM53.7902 16.9145C53.7902 14.11 51.7679 12.1911 49.4209 12.1911C47.0738 12.1911 45.0516 14.11 45.0516 16.9145C45.0516 19.691 47.0738 21.638 49.4209 21.638C51.7679 21.638 53.7902 19.6875 53.7902 16.9145Z" fill="#FBBC05"/>
<path id="Vector_3" d="M73.2582 9.59033V23.585C73.2582 29.3418 69.8843 31.693 65.8957 31.693C62.1411 31.693 59.8814 29.166 59.0292 27.0995L61.9909 25.8589C62.5183 27.1276 63.8106 28.6248 65.8922 28.6248C68.4453 28.6248 70.0275 27.0398 70.0275 24.056V22.9349H69.9088C69.1474 23.8803 67.6805 24.7062 65.8294 24.7062C61.956 24.7062 58.4075 21.3112 58.4075 16.9426C58.4075 12.5425 61.956 9.11938 65.8294 9.11938C67.677 9.11938 69.1439 9.94529 69.9088 10.8626H70.0275V9.59384H73.2582V9.59033ZM70.2685 16.9426C70.2685 14.1978 68.4488 12.1911 66.1332 12.1911C63.7862 12.1911 61.8198 14.1978 61.8198 16.9426C61.8198 19.6593 63.7862 21.638 66.1332 21.638C68.4488 21.638 70.2685 19.6593 70.2685 16.9426Z" fill="#4285F4"/>
<path id="Vector_4" d="M78.5845 1.3877V24.2319H75.2665V1.3877H78.5845Z" fill="#34A853"/>
<path id="Vector_5" d="M91.5144 19.4802L94.1549 21.2515C93.3027 22.5202 91.249 24.7063 87.7005 24.7063C83.2997 24.7063 80.0132 21.2831 80.0132 16.9111C80.0132 12.2755 83.3277 9.11597 87.3198 9.11597C91.3398 9.11597 93.3062 12.3352 93.9488 14.0749L94.3016 14.9606L83.9459 19.2764C84.7387 20.8403 85.9716 21.6381 87.7005 21.6381C89.4328 21.6381 90.6343 20.7806 91.5144 19.4802ZM83.3871 16.6756L90.3095 13.7832C89.9288 12.8097 88.7832 12.1314 87.435 12.1314C85.7062 12.1314 83.2997 13.6672 83.3871 16.6756V16.6756Z" fill="#EA4335"/>
<path id="Vector_6" d="M12.3257 14.8869V11.5797H23.4009C23.5091 12.1561 23.565 12.8379 23.565 13.576C23.565 16.0572 22.8909 19.1253 20.7185 21.3114C18.6054 23.5255 15.9056 24.7064 12.3292 24.7064C5.70012 24.7064 0.125854 19.273 0.125854 12.6024C0.125854 5.93194 5.70012 0.498535 12.3292 0.498535C15.9964 0.498535 18.6089 1.94651 20.5718 3.83379L18.2527 6.16741C16.8452 4.83893 14.9382 3.80567 12.3257 3.80567C7.48486 3.80567 3.69883 7.73136 3.69883 12.6024C3.69883 17.4735 7.48486 21.3992 12.3257 21.3992C15.4656 21.3992 17.2538 20.1305 18.3994 18.9777C19.3284 18.0429 19.9396 16.7074 20.1806 14.8834L12.3257 14.8869V14.8869Z" fill="#4285F4"/>
</g>
<defs>
<clipPath id="clip0_19_1012">
<rect width="95" height="32.3333" fill="white" transform="translate(0 0.333252)"/>
</clipPath>
</defs>
</svg>
