<svg width="29" height="29" viewBox="0 0 29 29" fill="none" xmlns="http://www.w3.org/2000/svg">
<g id="logo-whatsapp">
<path id="Vector" fill-rule="evenodd" clip-rule="evenodd" d="M23.4906 5.49986C22.3176 4.32631 20.924 3.39635 19.3902 2.76353C17.8564 2.1307 16.2125 1.80751 14.5532 1.81256C7.58984 1.81256 1.92125 7.45283 1.91842 14.3868C1.91534 16.5947 2.49734 18.764 3.60518 20.6739L1.8125 27.1876L8.51025 25.4391C10.3642 26.4434 12.4396 26.9691 14.5481 26.9684H14.5532C21.5161 26.9684 27.1841 21.3275 27.1875 14.3941C27.1917 12.7406 26.867 11.1026 26.2324 9.57569C25.5977 8.04874 24.6657 6.66326 23.4906 5.49986ZM14.5532 24.846H14.5487C12.669 24.8466 10.8235 24.3436 9.2041 23.3892L8.82064 23.1627L4.84617 24.2003L5.90705 20.3437L5.65727 19.9472C4.60623 18.2832 4.04938 16.3549 4.0515 14.3868C4.0515 8.62473 8.76457 3.93658 14.5572 3.93658C17.336 3.93162 20.003 5.03061 21.9715 6.99185C23.9401 8.95308 25.049 11.6159 25.0544 14.3947C25.0521 20.1573 20.3413 24.846 14.5532 24.846ZM20.313 17.0189C19.9975 16.8614 18.4439 16.1013 18.1562 15.9965C17.8684 15.8917 17.656 15.839 17.4459 16.154C17.2357 16.4689 16.6303 17.1735 16.4462 17.3859C16.2621 17.5983 16.078 17.6215 15.7625 17.4641C15.447 17.3066 14.4292 16.9753 13.2233 15.9047C12.2848 15.0716 11.6515 14.043 11.4675 13.7286C11.2834 13.4143 11.4476 13.2438 11.6057 13.0874C11.7478 12.9464 11.9212 12.7204 12.0792 12.5369C12.2372 12.3534 12.2899 12.222 12.3947 12.0124C12.4995 11.8028 12.4473 11.6193 12.3686 11.4624C12.2899 11.3055 11.6583 9.75867 11.3955 9.12939C11.1389 8.51654 10.879 8.59981 10.6853 8.59018C10.5012 8.58111 10.2888 8.57885 10.0798 8.57885C9.91999 8.58301 9.76278 8.62006 9.61797 8.68769C9.47315 8.75533 9.34383 8.85209 9.23809 8.97193C8.94865 9.28686 8.13303 10.0481 8.13303 11.5933C8.13303 13.1384 9.26584 14.6337 9.42217 14.8433C9.5785 15.0529 11.6481 18.2264 14.8149 19.5875C15.403 19.8393 16.0038 20.0602 16.615 20.2491C17.3711 20.4881 18.0593 20.4547 18.603 20.3737C19.2097 20.2836 20.4722 19.6136 20.7344 18.8795C20.9967 18.1455 20.9972 17.5167 20.9185 17.3859C20.8398 17.2551 20.6291 17.1758 20.313 17.0189Z" fill="#F5F5F5"/>
</g>
</svg>
