<svg width="31" height="31" viewBox="0 0 31 31" fill="none" xmlns="http://www.w3.org/2000/svg">
<path id="Message" fill-rule="evenodd" clip-rule="evenodd" d="M23.1554 0C25.234 0 27.2335 0.912778 28.7044 2.55061C30.1769 4.185 31 6.38944 31 8.69722V22.3028C31 27.1078 27.4815 31 23.1554 31H7.843C3.51695 31 0 27.1078 0 22.3028V8.69722C0 3.89222 3.50145 0 7.843 0H23.1554ZM25.6214 11.2646L25.7454 11.1268C26.1158 10.6274 26.1158 9.90402 25.7283 9.40457C25.5129 9.14796 25.2168 8.99124 24.9084 8.9568C24.5829 8.93785 24.2729 9.06013 24.0388 9.30124L17.0499 15.5012C16.1509 16.3296 14.8628 16.3296 13.9499 15.5012L6.97489 9.30124C6.49284 8.90513 5.82634 8.9568 5.42489 9.4218C5.00639 9.8868 4.95989 10.6274 5.31484 11.144L5.51789 11.3679L12.5704 17.4818C13.4384 18.2396 14.4908 18.6529 15.5929 18.6529C16.6918 18.6529 17.7629 18.2396 18.6293 17.4818L25.6214 11.2646Z" fill="#364660"/>
</svg>
