<svg width="50" height="50" viewBox="0 0 50 50" fill="none" xmlns="http://www.w3.org/2000/svg">
<path d="M47.5062 33.7054L32.4896 33.0212C32.0094 32.981 30 32.8862 30 30.1339C30 27.4766 31.9958 27.3069 32.5146 27.2456L47.5062 26.5625C48.826 26.577 50 28.173 50 30.1339C50 32.0949 48.826 33.6909 47.5062 33.7054ZM32.7719 19.0101L43.8906 18.0804C45.2083 18.0804 46.6667 19.942 46.6667 21.8616V21.8985C46.6667 23.7199 45.5062 25.2043 44.075 25.2232L32.7781 25.0302C30 24.6652 30 22.8605 30 22.0848C30 19.5313 32.2708 19.0547 32.7719 19.0101ZM42.276 50L32.9667 49.0033C30.4167 48.8995 30 47.0781 30 45.9364C30 43.885 31.3969 43.1908 32.7781 43.1908L42.2573 42.856C43.7719 42.8817 44.999 44.4743 44.999 46.4274C44.999 48.3806 43.7833 49.962 42.276 50ZM45.8552 42.0201L32.6885 41.327C31.7104 41.2567 30 40.9922 30 38.3839C30 37.0446 30.4531 35.5257 32.6042 35.3114L45.8531 34.8784C47.224 34.894 48.3333 36.3839 48.3333 38.3828C48.3333 40.3817 47.224 42.0022 45.8552 42.019V42.0201Z" fill="#FFFEFE"/>
<path d="M12.2447 22.9977C12.0035 23.1389 11.7331 23.2133 11.4583 23.2142C11.7316 23.2134 12.0004 23.1397 12.2405 22.9999L12.2447 22.9977Z" fill="#FFFEFE"/>
<path d="M16.473 15.2658C14.3376 19.2289 13.3105 21.3986 12.9501 22.1854C13.3115 21.3964 14.3397 19.2267 16.473 15.2658Z" fill="#FFFEFE"/>
<path d="M12.8479 22.4152L12.952 22.192C12.8013 22.5337 12.5548 22.8166 12.2468 23.0011C12.4884 22.8606 12.6946 22.6596 12.8479 22.4152Z" fill="#FFFEFE"/>
<path d="M31.2562 2.30134C30.274 0.816963 28.6458 7.40725e-09 26.6667 7.40725e-09C26.3572 -3.01865e-05 26.0539 0.0922488 25.7906 0.266501C25.5273 0.440754 25.3145 0.690099 25.176 0.986606C24.8635 1.66406 23.5875 3.66517 22.2396 5.77566C20.3646 8.71428 18.0365 12.3683 16.4865 15.2399L16.4729 15.2656C14.3396 19.2265 13.3115 21.3962 12.95 22.1852L12.8458 22.4085C12.6916 22.6519 12.4846 22.8518 12.2427 22.991C12.0027 23.1343 11.7331 23.2111 11.4583 23.2143H8.82187C6.48217 23.2143 4.23829 24.2101 2.58387 25.9827C0.929445 27.7553 6.15045e-08 30.1594 6.15045e-08 32.6663V36.9754C-0.000136742 38.2168 0.227947 39.446 0.671226 40.5929C1.11451 41.7398 1.7643 42.7819 2.5835 43.6597C3.4027 44.5375 4.37526 45.2338 5.44565 45.7089C6.51603 46.184 7.66328 46.4285 8.82187 46.4285H13.9042C14.259 46.43 14.6057 46.5421 14.9021 46.7511C17.2917 48.4229 21.8062 49.9999 26.6667 49.9999C27.4427 49.9999 28.1448 49.9843 28.7781 49.9575C28.929 49.9518 29.0756 49.9022 29.2022 49.8141C29.3289 49.726 29.4308 49.6028 29.4971 49.4574C29.5634 49.3121 29.5917 49.1502 29.5788 48.989C29.5659 48.8279 29.5124 48.6735 29.424 48.5424L29.4135 48.5267C28.5208 47.1439 28.3333 45.6473 28.3333 44.6428C28.3318 43.691 28.5159 42.7494 28.874 41.8783C28.9759 41.6314 29.0286 41.3643 29.0286 41.0943C29.0286 40.8242 28.9759 40.5572 28.874 40.3102C28.5176 39.4219 28.3339 38.4652 28.3339 37.4983C28.3339 36.5314 28.5176 35.5747 28.874 34.6863C28.9754 34.4402 29.0279 34.1742 29.0279 33.9051C29.0279 33.636 28.9754 33.3699 28.874 33.1238C28.5194 32.2507 28.3364 31.3087 28.3364 30.3565C28.3364 29.4044 28.5194 28.4624 28.874 27.5893C28.9806 27.3313 29.0356 27.0522 29.0356 26.7701C29.0356 26.4879 28.9806 26.2089 28.874 25.9509C28.5024 25.055 28.3179 24.0829 28.3333 23.1027C28.3333 22.1875 28.5417 20.7254 29.1667 19.6216C29.2929 19.3942 29.3693 19.1389 29.3898 18.8751C29.4104 18.6114 29.3747 18.3461 29.2854 18.0993C29.2458 17.9877 29.2062 17.8683 29.1677 17.7455C29.043 17.3283 29.0123 16.8854 29.0781 16.4531C29.3906 14.2946 30.0854 12.4029 30.8219 10.4085C31.1427 9.54017 31.475 8.64285 31.7823 7.70088C32.4219 5.73995 32.2302 3.77232 31.2562 2.30134Z" fill="#FFFEFE"/>
</svg>
