<svg width="64" height="64" viewBox="0 0 64 64" fill="none" xmlns="http://www.w3.org/2000/svg">
<path id="Vector" d="M62.5111 12.7493C62.3465 12.4292 62.1087 12.1526 61.8169 11.9419C61.5251 11.7312 61.1876 11.5923 60.832 11.5366C60.4763 11.481 60.1126 11.51 59.7703 11.6215C59.428 11.7329 59.1169 11.9236 58.8623 12.178L50.0846 20.9583C49.6537 21.3828 49.073 21.6208 48.4681 21.6208C47.8631 21.6208 47.2824 21.3828 46.8515 20.9583L43.057 17.1594C42.8447 16.9472 42.6763 16.6953 42.5614 16.418C42.4464 16.1408 42.3873 15.8436 42.3873 15.5435C42.3873 15.2433 42.4464 14.9461 42.5614 14.6689C42.6763 14.3916 42.8447 14.1397 43.057 13.9275L51.7976 5.18856C52.0596 4.92667 52.254 4.60502 52.3641 4.25134C52.4741 3.89765 52.4965 3.52252 52.4293 3.15826C52.3621 2.794 52.2073 2.45153 51.9783 2.16035C51.7493 1.86917 51.4529 1.638 51.1147 1.48677C44.5128 -1.46382 36.2723 0.0757425 31.0762 5.23141C26.6616 9.61301 25.3458 16.4596 27.4688 24.016C27.5833 24.419 27.584 24.8458 27.4707 25.2491C27.3575 25.6524 27.1348 26.0165 26.8274 26.3011L3.04294 48.0163C2.11637 48.8479 1.36899 49.8595 0.846396 50.9894C0.323803 52.1193 0.0369522 53.3438 0.0033405 54.5881C-0.0302712 55.8325 0.190061 57.0706 0.650898 58.2271C1.11173 59.3835 1.80341 60.4339 2.68374 61.3144C3.56407 62.1948 4.61459 62.8867 5.77122 63.3478C6.92786 63.809 8.16635 64.0298 9.41116 63.9968C10.656 63.9637 11.881 63.6775 13.0115 63.1556C14.142 62.6337 15.1543 61.887 15.9867 60.9611L37.9424 37.1323C38.223 36.8289 38.5811 36.6077 38.9781 36.4927C39.3751 36.3777 39.796 36.3732 40.1954 36.4796C42.3475 37.069 44.5673 37.3749 46.7987 37.3893C51.5704 37.3893 55.7578 35.8455 58.778 32.8706C64.3713 27.3622 65.2242 18.0192 62.5111 12.7493ZM9.64195 59.3973C8.70103 59.5 7.75142 59.3082 6.92419 58.8484C6.09696 58.3886 5.43289 57.6834 5.02362 56.8303C4.61435 55.9771 4.48007 55.018 4.6393 54.0853C4.79854 53.1526 5.24344 52.2924 5.9126 51.6232C6.58177 50.954 7.4422 50.509 8.37517 50.3495C9.30813 50.19 10.2676 50.3239 11.1212 50.7327C11.9748 51.1415 12.6804 51.8051 13.1407 52.6319C13.601 53.4586 13.7932 54.4078 13.6908 55.3485C13.5781 56.3834 13.1154 57.3489 12.3791 58.0852C11.6429 58.8214 10.6772 59.2843 9.64195 59.3973Z" fill="#A00303"/>
</svg>
