<svg width="137" height="32" viewBox="0 0 137 32" fill="none" xmlns="http://www.w3.org/2000/svg">
<g id="-" clip-path="url(#clip0_92_214)">
<path id="Shape" d="M48.7546 11.382V13.1955H48.8102C49.4646 12.2245 50.551 11.0811 52.959 11.0811C54.8324 11.0811 56.2695 12.032 56.8854 13.4683H56.941C57.4671 12.7421 58.0701 12.1925 58.7459 11.8033C59.5457 11.3419 60.4354 11.0771 61.556 11.0771C64.0923 11.0771 66.3378 12.7221 66.3378 16.8707V24.7386H62.4713V17.4203C62.4713 15.3179 61.7099 14.1023 60.1274 14.1023C58.9683 14.1023 58.1257 14.8325 57.8049 15.7312C57.6937 16.0401 57.6424 16.4614 57.6424 16.8145V24.7426H53.7759V17.1234C53.7759 15.338 53.0445 14.0982 51.4834 14.0982C50.2345 14.0982 49.4518 15.021 49.131 15.8114C48.9941 16.1485 48.9514 16.5377 48.9514 16.9028V24.7386H45.0806V11.382H48.7546ZM86.2947 11.382V13.9016H86.4016C87.1116 11.9758 88.7968 11.0811 90.2767 11.0811C90.6488 11.0811 90.8541 11.1092 91.1535 11.1653V14.664C90.7985 14.6158 90.4691 14.5677 90.0072 14.5677C88.3306 14.5677 87.1629 15.4824 86.8678 16.9148C86.8037 17.2117 86.7823 17.5327 86.7823 17.9018V24.7426H82.8131V11.382H86.2947ZM96.5426 6.95654V11.1613H99.8958V14.5637H96.5426V19.5829C96.5426 21.2078 96.9831 21.9942 98.2919 21.9942C98.9078 21.9942 99.3612 21.922 99.7547 21.8297L99.806 24.6503C99.2799 24.8349 98.1593 25.0355 97.0216 25.0355C95.6829 25.0355 94.5666 24.5981 93.8865 23.9201C93.1081 23.1457 92.7488 21.8779 92.7488 20.0724V6.95654H96.5426ZM42.386 24.7386H38.5366V6.95654H42.386V24.7386ZM32.121 19.9681C32.121 20.2128 32.0996 20.4696 32.0269 20.6903C31.7275 21.6171 30.7053 22.3995 29.4307 22.3995C28.3657 22.3995 27.5188 21.8337 27.5188 20.6341C27.5188 18.8005 29.6745 18.291 32.1253 18.303V19.9681H32.121ZM35.9661 16.7704C35.9661 13.7412 34.5889 11.0811 29.9311 11.0811C27.5402 11.0811 25.6412 11.711 24.6061 12.2727L25.3632 14.7041C26.3084 14.1424 27.8182 13.681 29.2468 13.681C31.612 13.677 31.997 14.9368 31.997 15.7432V15.9358C26.8431 15.9278 23.5882 17.6009 23.5882 21.0112C23.5882 23.0936 25.2434 25.0435 28.1262 25.0435C29.9012 25.0435 31.3811 24.3815 32.2707 23.3183H32.3562C32.3562 23.3183 32.9465 25.6253 36.1885 24.7426C36.0174 23.7797 35.9618 22.7565 35.9618 21.5248V16.7704H35.9661ZM4.25143 6.95654C4.6492 8.83826 5.77836 14.3029 5.77836 14.3029C6.25311 16.5497 6.68938 18.9048 7.01871 20.7665H7.07859C7.39938 18.7885 7.90407 16.9148 8.44299 14.5958L10.3463 6.95654H14.5592L16.3385 14.7924C16.8047 16.971 17.1768 18.6521 17.4719 20.6782H17.5275C17.8483 18.632 18.2675 16.8827 18.7251 14.6439L20.436 6.95654H24.4778L19.4693 24.7386C16.2786 25.3926 15.0554 24.1889 14.6191 22.2791C14.1828 20.3653 13.3274 16.7262 13.3274 16.7262C12.8869 14.7322 12.5447 13.3279 12.3052 11.2817H12.2453C11.9032 13.3078 11.5439 14.7282 11.0135 16.7222L8.91347 24.7426C5.65432 25.3524 4.52517 24.4497 3.90071 21.9982C3.3618 19.8999 0 6.96056 0 6.96056H4.25143V6.95654ZM76.3975 19.9681C76.3975 20.2128 76.3761 20.4696 76.3034 20.6903C76.004 21.6171 74.9818 22.3995 73.7072 22.3995C72.6422 22.3995 71.7953 21.8337 71.7953 20.6341C71.7953 18.8005 73.951 18.291 76.4018 18.303V19.9681H76.3975ZM80.2426 16.7704C80.2426 13.7412 78.8654 11.0811 74.2076 11.0811C71.8167 11.0811 69.9177 11.711 68.8826 12.2727L69.6397 14.7041C70.5849 14.1424 72.0947 13.681 73.5233 13.681C75.8842 13.677 76.2734 14.9368 76.2734 15.7432V15.9358C71.1238 15.9278 67.869 17.6009 67.869 21.0112C67.869 23.0936 69.5285 25.0435 72.407 25.0435C74.1777 25.0435 75.6618 24.3815 76.5472 23.3183H76.637C76.637 23.3183 77.2272 25.6253 80.4693 24.7426C80.2982 23.7797 80.2426 22.7565 80.2426 21.5248V16.7704Z" fill="#041E42"/>
<path id="Shape_2" d="M115.5 18.6143C115.879 19.2637 115.854 19.9885 115.449 20.3195L108.448 25.1417C107.719 25.5564 106.628 25.0537 106.01 24.0021C105.387 22.9463 105.498 21.769 106.227 21.3543L113.978 17.8099C114.464 17.6256 115.12 17.9649 115.5 18.6143ZM124.713 18.6143C125.097 17.9649 125.749 17.6297 126.235 17.8057L133.99 21.3501C134.719 21.7649 134.826 22.9421 134.207 23.9979C133.585 25.0495 132.489 25.548 131.765 25.1375L124.764 20.3153C124.363 19.9885 124.334 19.2595 124.713 18.6143ZM120.104 21.2286C120.867 21.2286 121.494 21.614 121.579 22.121L122.334 30.4918C122.334 31.3213 121.349 32 120.109 32C118.872 32 117.883 31.3213 117.883 30.4918L118.633 22.121C118.719 21.614 119.345 21.2286 120.104 21.2286ZM124.764 11.6847L131.765 6.85834C132.489 6.44357 133.585 6.94213 134.207 7.99791C134.826 9.05368 134.719 10.231 133.99 10.6457L126.235 14.1943C125.749 14.3703 125.092 14.0351 124.713 13.3857C124.334 12.7363 124.363 12.0115 124.764 11.6847ZM113.978 14.1943L106.227 10.6457C105.502 10.231 105.391 9.05368 106.01 7.99791C106.628 6.94213 107.724 6.44357 108.448 6.85834L115.449 11.6847C115.854 12.0073 115.879 12.7363 115.5 13.3857C115.12 14.0351 114.464 14.3703 113.978 14.1943ZM118.633 9.87903L117.883 1.50825C117.883 0.678712 118.868 0 120.109 0C121.349 0 122.334 0.678712 122.334 1.50825L121.579 9.87903C121.494 10.3818 120.867 10.7714 120.104 10.7714C119.345 10.7714 118.719 10.3818 118.633 9.87903ZM136.1 25.1081V24.8987H136.292C136.356 24.8987 136.399 24.9406 136.399 25.0034C136.399 25.0621 136.356 25.1081 136.292 25.1081H136.1ZM135.943 25.4894C135.943 25.5103 135.96 25.5313 135.985 25.5313H136.066C136.088 25.5313 136.109 25.5103 136.109 25.4894V25.2506H136.241L136.348 25.502C136.356 25.5187 136.369 25.5313 136.386 25.5313H136.484C136.514 25.5313 136.535 25.502 136.522 25.4726C136.484 25.3972 136.446 25.3176 136.407 25.238C136.471 25.2171 136.569 25.1542 136.569 25.0034C136.569 24.8442 136.437 24.752 136.305 24.752H135.985C135.964 24.752 135.943 24.773 135.943 24.7939V25.4894ZM135.597 25.1417C135.597 24.8023 135.879 24.5258 136.224 24.5258C136.569 24.5258 136.851 24.7981 136.851 25.1417C136.851 25.481 136.574 25.7575 136.224 25.7575C135.874 25.7575 135.597 25.481 135.597 25.1417ZM135.448 25.1417C135.448 25.5606 135.793 25.9042 136.224 25.9042C136.65 25.9042 137 25.5606 137 25.1417C137 24.7227 136.65 24.3792 136.224 24.3792C135.793 24.3792 135.448 24.7227 135.448 25.1417Z" fill="#FFC124"/>
</g>
<defs>
<clipPath id="clip0_92_214">
<rect width="137" height="32" fill="white"/>
</clipPath>
</defs>
</svg>
