<svg width="64" height="64" viewBox="0 0 64 64" fill="none" xmlns="http://www.w3.org/2000/svg">
<path id="Union" fill-rule="evenodd" clip-rule="evenodd" d="M48.676 11.6795C43.9748 7.82193 38.0814 5.71378 32 5.71429C28.5523 5.70496 25.1369 6.37855 21.9509 7.69614C21.9423 7.74969 21.9254 7.80182 21.9007 7.85068C21.862 7.92705 21.8053 7.99322 21.7353 8.04367L20.1895 9.16267C20.1229 9.21184 20.0686 9.27533 20.0307 9.34828C19.9929 9.42123 19.9725 9.50172 19.9711 9.58361C19.9697 9.6655 19.9873 9.74661 20.0227 9.82076C20.0581 9.89492 20.1102 9.96014 20.1751 10.0115L22.0779 11.4898C22.1586 11.5517 22.2554 11.59 22.3573 11.6003C22.4591 11.6105 22.5618 11.5923 22.6536 11.5478L26.6664 9.57575C26.7529 9.53284 26.8494 9.51312 26.9462 9.51859C27.043 9.52405 27.1366 9.5545 27.2176 9.60688L30.1653 11.5337C30.2401 11.5828 30.3014 11.6492 30.3439 11.7272C30.3863 11.8052 30.4085 11.8923 30.4085 11.9807V13.5934C30.4085 13.7026 30.3747 13.8092 30.3114 13.8989C30.2481 13.9887 30.1585 14.0573 30.0544 14.0956L27.114 15.1807C27.0102 15.2184 26.9208 15.2865 26.8578 15.3759L24.7564 18.3495C24.6928 18.4397 24.6587 18.5468 24.6585 18.6565V20.4248C24.6586 20.5233 24.6311 20.6198 24.5791 20.7039C24.527 20.788 24.4524 20.8564 24.3635 20.9016L20.4098 22.9019C20.34 22.9377 20.2785 22.9872 20.229 23.0473C20.1795 23.1074 20.143 23.1768 20.1219 23.2513L19.1302 26.7173C19.0622 26.9546 18.9171 27.1637 18.717 27.3126C18.517 27.4614 18.2729 27.542 18.022 27.542H13.363C13.2913 27.5419 13.2204 27.5558 13.1542 27.5827C13.088 27.6096 13.0279 27.6492 12.9773 27.699L11.7654 28.8902C11.6891 28.9652 11.6371 29.0607 11.6161 29.1647C11.595 29.2687 11.6058 29.3765 11.6471 29.4745C11.6884 29.5725 11.7583 29.6562 11.848 29.7151C11.9377 29.774 12.0432 29.8055 12.1511 29.8055H19.8067C19.8823 29.8054 19.9572 29.82 20.0271 29.8484C20.097 29.8768 20.1605 29.9184 20.214 29.971L22.1887 31.9119C22.2393 31.9618 22.2995 32.0013 22.3656 32.0282C22.4318 32.0552 22.5028 32.069 22.5744 32.0689H26.7628C26.8874 32.0689 27.0086 32.1086 27.1082 32.1821L35.9354 38.6896C36.0056 38.743 36.0622 38.8117 36.1009 38.8902C36.1396 38.9687 36.1593 39.055 36.1585 39.1423V47.6246C36.1586 47.7152 36.1365 47.8045 36.0942 47.885C36.0519 47.9655 35.9905 48.0349 35.9152 48.0872L29.4384 52.6C29.3208 52.6817 29.2386 52.8039 29.2081 52.9423L28.0993 57.9944C32.7992 58.7001 37.6284 58.1214 42.063 56.2841C45.8515 54.7146 49.194 52.292 51.8482 49.2359V43.846C51.8479 43.7066 51.8097 43.5697 51.7376 43.4496C51.6654 43.3295 51.562 43.2305 51.438 43.1627L48.0902 41.3421C47.9678 41.2754 47.8653 41.1782 47.7933 41.0602C47.7213 40.9422 47.6822 40.8077 47.68 40.6701L47.6411 37.347C47.6389 37.2073 47.5988 37.0708 47.5249 36.9514C47.451 36.832 47.3461 36.7342 47.2209 36.668L38.8888 32.2967C38.7617 32.2302 38.6555 32.1309 38.5814 32.0095C38.5074 31.8882 38.4684 31.7493 38.4685 31.6077V25.7029C38.4674 25.5732 38.4992 25.4453 38.5611 25.3307C38.6229 25.2161 38.7128 25.1184 38.8226 25.0465L45.1771 20.8832C45.3073 20.7972 45.4606 20.7514 45.6175 20.7516H50.7702C50.9142 20.7515 51.0556 20.7901 51.1789 20.8634L54.4001 22.7618C54.5234 22.8351 54.6647 22.8737 54.8088 22.8736H56.6528C55.0424 18.5239 52.2997 14.6529 48.676 11.6795ZM21.8247 56.2355L20.0902 48.1395C20.06 47.9969 19.9749 47.8712 19.8527 47.7887L15.6356 44.9396C15.5731 44.8971 15.5203 44.8424 15.4804 44.7788C15.4405 44.7153 15.4145 44.6443 15.4039 44.5703L14.3215 36.8547C14.3104 36.7753 14.2812 36.6993 14.2361 36.6325C14.191 36.5656 14.1312 36.5096 14.061 36.4685L8.6565 33.2799C8.57275 33.2309 8.5041 33.1605 8.45788 33.0762L5.94538 28.5385C5.90626 28.833 5.87207 29.1286 5.84289 29.4252C5.24718 35.4773 6.76841 41.5487 10.1474 46.605C13.0222 50.9069 17.0905 54.2475 21.8247 56.2355ZM0 32C0 14.3286 14.3286 0 32 0C49.6714 0 64 14.3286 64 32C64 49.6714 49.6714 64 32 64C14.3286 64 0 49.6714 0 32Z" fill="#A00303"/>
</svg>
