<svg width="64" height="64" viewBox="0 0 64 64" fill="none" xmlns="http://www.w3.org/2000/svg">
<path id="Union" fill-rule="evenodd" clip-rule="evenodd" d="M32.0007 0C14.3279 0 0 14.3282 0 32.0011C0 49.6741 14.3279 64.0023 32.0007 64.0023C49.6735 64.0023 64.0014 49.6741 64.0014 32.0011C64.0014 14.3282 49.6735 0 32.0007 0ZM29.0007 6.17123C28.3165 6.24985 27.6403 6.35504 26.9733 6.48573C25.3656 7.78006 23.808 9.68671 22.4215 12.1828C21.8073 13.2886 21.2382 14.492 20.7244 15.7802C23.3195 16.7357 26.098 17.372 29.0007 17.6332V6.17123ZM29.0007 20.6443C25.7532 20.3765 22.6389 19.6778 19.7285 18.6103C18.7632 21.7443 18.1099 25.2565 17.8816 29.0011H29.0007V20.6443ZM14.8764 29.0011C15.1142 24.8587 15.8435 20.9496 16.9478 17.4501C15.3627 16.7053 13.8518 15.8463 12.4284 14.8848C9.04533 18.7502 6.78876 23.6265 6.17122 29.0011H14.8764ZM6.17122 35.0011H14.8811C15.1252 39.1416 15.8604 43.0475 16.97 46.5424C15.3769 47.2895 13.8587 48.152 12.4287 49.1179C9.04548 45.2524 6.78878 40.376 6.17122 35.0011ZM17.8866 35.0011H29.0007V43.3586C25.7615 43.6257 22.6549 44.3215 19.7509 45.3843C18.7802 42.2544 18.121 38.7446 17.8866 35.0011ZM29.0007 46.3697C26.1085 46.63 23.3396 47.2626 20.7526 48.2124C21.259 49.474 21.8185 50.6538 22.4215 51.7393C23.8463 54.3044 25.4518 56.247 27.1066 57.5423C27.7304 57.6611 28.362 57.7577 29.0007 57.831V46.3697ZM35.0007 57.831V46.3698C37.8931 46.6303 40.662 47.2631 43.2491 48.213C42.7428 49.4744 42.1834 50.6539 41.5805 51.7393C40.1557 54.3043 38.5503 56.2469 36.8955 57.5422C36.2715 57.661 35.6396 57.7576 35.0007 57.831ZM35.0007 43.3587V35.0011H46.1154C45.8809 38.7449 45.2216 42.2549 44.2508 45.385C41.3467 44.3219 38.2401 43.626 35.0007 43.3587ZM46.1203 29.0011H35.0007V20.6442C38.2484 20.3762 41.3627 19.6774 44.2732 18.6097C45.2387 21.7438 45.892 25.2562 46.1203 29.0011ZM49.1208 35.0011C48.8767 39.1419 48.1414 43.0481 47.0317 46.5432C48.6245 47.2903 50.1424 48.1527 51.5721 49.1185C54.9557 45.253 57.2126 40.3763 57.8302 35.0011H49.1208ZM57.8302 29.0011H49.1255C48.8877 24.8584 48.1583 20.949 47.0539 17.4493C48.6387 16.7045 50.1493 15.8456 51.5725 14.8841C54.9558 18.7496 57.2126 23.6262 57.8302 29.0011ZM35.0007 17.6331V6.17123C35.6852 6.24988 36.3616 6.35511 37.0288 6.48587C38.6365 7.78019 40.194 9.6868 41.5805 12.1828C42.1946 13.2884 42.7635 14.4916 43.2773 15.7795C40.6821 16.7352 37.9036 17.3717 35.0007 17.6331ZM17.9885 49.3797C16.7996 49.9505 15.6587 50.5915 14.5726 51.2962C16.5871 53.117 18.888 54.6267 21.3996 55.7497C20.8322 54.9484 20.2975 54.0937 19.7989 53.1961C19.1416 52.0127 18.5353 50.7363 17.9885 49.3797ZM17.9613 14.6101C16.782 14.0425 15.6502 13.4059 14.5722 12.7064C16.5647 10.9054 18.8375 9.4087 21.3172 8.28957C20.7803 9.05693 20.2733 9.87212 19.7989 10.7261C19.1307 11.9291 18.5151 13.2283 17.9613 14.6101ZM49.4282 51.2968C48.3423 50.5922 47.2017 49.9513 46.0132 49.3805C45.4664 50.7368 44.8602 52.0129 44.203 53.1961C43.7045 54.0935 43.1699 54.9481 42.6026 55.7494C45.1137 54.6265 47.4141 53.1171 49.4282 51.2968ZM46.0403 14.6093C47.2193 14.0418 48.3509 13.4052 49.4286 12.7058C47.4364 10.9053 45.1642 9.4089 42.685 8.28992C43.2217 9.05718 43.7287 9.87225 44.203 10.7261C44.8712 11.9289 45.4866 13.2278 46.0403 14.6093Z" fill="#A00303"/>
</svg>
